<?xml version="1.0" encoding="utf-8" standalone="no"?>
<!DOCTYPE svg PUBLIC "-//W3C//DTD SVG 1.1//EN"
  "http://www.w3.org/Graphics/SVG/1.1/DTD/svg11.dtd">
<svg xmlns:xlink="http://www.w3.org/1999/xlink" width="720pt" height="360pt" viewBox="0 0 720 360" xmlns="http://www.w3.org/2000/svg" version="1.1">
 <metadata>
  <rdf:RDF xmlns:dc="http://purl.org/dc/elements/1.1/" xmlns:cc="http://creativecommons.org/ns#" xmlns:rdf="http://www.w3.org/1999/02/22-rdf-syntax-ns#">
   <cc:Work>
    <dc:type rdf:resource="http://purl.org/dc/dcmitype/StillImage"/>
    <dc:date>2023-08-30T11:52:34.047542</dc:date>
    <dc:format>image/svg+xml</dc:format>
    <dc:creator>
     <cc:Agent>
      <dc:title>Matplotlib v3.5.1, https://matplotlib.org/</dc:title>
     </cc:Agent>
    </dc:creator>
   </cc:Work>
  </rdf:RDF>
 </metadata>
 <defs>
  <style type="text/css">*{stroke-linejoin: round; stroke-linecap: butt}</style>
 </defs>
 <g id="figure_1">
  <g id="patch_1">
   <path d="M 0 360 
L 720 360 
L 720 0 
L 0 0 
z
" style="fill: #ffffff"/>
  </g>
  <g id="axes_1">
   <g id="patch_2">
    <path d="M 409.658069 301.370397 
L 709.2 301.370397 
L 709.2 49.608 
L 409.658069 49.608 
z
" style="fill: #ffffff"/>
   </g>
   <g id="matplotlib.axis_1">
    <g id="xtick_1">
     <g id="line2d_1">
      <defs>
       <path id="mbb4793c78a" d="M 0 0 
L 0 3.5 
" style="stroke: #000000; stroke-width: 0.8"/>
      </defs>
      <g>
       <use xlink:href="#mbb4793c78a" x="423.273611" y="301.370397" style="stroke: #000000; stroke-width: 0.8"/>
      </g>
     </g>
     <g id="text_1">
      <!-- 0.0 -->
      <g transform="translate(415.322049 315.968834)scale(0.1 -0.1)">
       <defs>
        <path id="DejaVuSans-30" d="M 2034 4250 
Q 1547 4250 1301 3770 
Q 1056 3291 1056 2328 
Q 1056 1369 1301 889 
Q 1547 409 2034 409 
Q 2525 409 2770 889 
Q 3016 1369 3016 2328 
Q 3016 3291 2770 3770 
Q 2525 4250 2034 4250 
z
M 2034 4750 
Q 2819 4750 3233 4129 
Q 3647 3509 3647 2328 
Q 3647 1150 3233 529 
Q 2819 -91 2034 -91 
Q 1250 -91 836 529 
Q 422 1150 422 2328 
Q 422 3509 836 4129 
Q 1250 4750 2034 4750 
z
" transform="scale(0.015625)"/>
        <path id="DejaVuSans-2e" d="M 684 794 
L 1344 794 
L 1344 0 
L 684 0 
L 684 794 
z
" transform="scale(0.015625)"/>
       </defs>
       <use xlink:href="#DejaVuSans-30"/>
       <use xlink:href="#DejaVuSans-2e" x="63.623047"/>
       <use xlink:href="#DejaVuSans-30" x="95.410156"/>
      </g>
     </g>
    </g>
    <g id="xtick_2">
     <g id="line2d_2">
      <g>
       <use xlink:href="#mbb4793c78a" x="477.735781" y="301.370397" style="stroke: #000000; stroke-width: 0.8"/>
      </g>
     </g>
     <g id="text_2">
      <!-- 0.2 -->
      <g transform="translate(469.784218 315.968834)scale(0.1 -0.1)">
       <defs>
        <path id="DejaVuSans-32" d="M 1228 531 
L 3431 531 
L 3431 0 
L 469 0 
L 469 531 
Q 828 903 1448 1529 
Q 2069 2156 2228 2338 
Q 2531 2678 2651 2914 
Q 2772 3150 2772 3378 
Q 2772 3750 2511 3984 
Q 2250 4219 1831 4219 
Q 1534 4219 1204 4116 
Q 875 4013 500 3803 
L 500 4441 
Q 881 4594 1212 4672 
Q 1544 4750 1819 4750 
Q 2544 4750 2975 4387 
Q 3406 4025 3406 3419 
Q 3406 3131 3298 2873 
Q 3191 2616 2906 2266 
Q 2828 2175 2409 1742 
Q 1991 1309 1228 531 
z
" transform="scale(0.015625)"/>
       </defs>
       <use xlink:href="#DejaVuSans-30"/>
       <use xlink:href="#DejaVuSans-2e" x="63.623047"/>
       <use xlink:href="#DejaVuSans-32" x="95.410156"/>
      </g>
     </g>
    </g>
    <g id="xtick_3">
     <g id="line2d_3">
      <g>
       <use xlink:href="#mbb4793c78a" x="532.19795" y="301.370397" style="stroke: #000000; stroke-width: 0.8"/>
      </g>
     </g>
     <g id="text_3">
      <!-- 0.4 -->
      <g transform="translate(524.246387 315.968834)scale(0.1 -0.1)">
       <defs>
        <path id="DejaVuSans-34" d="M 2419 4116 
L 825 1625 
L 2419 1625 
L 2419 4116 
z
M 2253 4666 
L 3047 4666 
L 3047 1625 
L 3713 1625 
L 3713 1100 
L 3047 1100 
L 3047 0 
L 2419 0 
L 2419 1100 
L 313 1100 
L 313 1709 
L 2253 4666 
z
" transform="scale(0.015625)"/>
       </defs>
       <use xlink:href="#DejaVuSans-30"/>
       <use xlink:href="#DejaVuSans-2e" x="63.623047"/>
       <use xlink:href="#DejaVuSans-34" x="95.410156"/>
      </g>
     </g>
    </g>
    <g id="xtick_4">
     <g id="line2d_4">
      <g>
       <use xlink:href="#mbb4793c78a" x="586.660119" y="301.370397" style="stroke: #000000; stroke-width: 0.8"/>
      </g>
     </g>
     <g id="text_4">
      <!-- 0.6 -->
      <g transform="translate(578.708557 315.968834)scale(0.1 -0.1)">
       <defs>
        <path id="DejaVuSans-36" d="M 2113 2584 
Q 1688 2584 1439 2293 
Q 1191 2003 1191 1497 
Q 1191 994 1439 701 
Q 1688 409 2113 409 
Q 2538 409 2786 701 
Q 3034 994 3034 1497 
Q 3034 2003 2786 2293 
Q 2538 2584 2113 2584 
z
M 3366 4563 
L 3366 3988 
Q 3128 4100 2886 4159 
Q 2644 4219 2406 4219 
Q 1781 4219 1451 3797 
Q 1122 3375 1075 2522 
Q 1259 2794 1537 2939 
Q 1816 3084 2150 3084 
Q 2853 3084 3261 2657 
Q 3669 2231 3669 1497 
Q 3669 778 3244 343 
Q 2819 -91 2113 -91 
Q 1303 -91 875 529 
Q 447 1150 447 2328 
Q 447 3434 972 4092 
Q 1497 4750 2381 4750 
Q 2619 4750 2861 4703 
Q 3103 4656 3366 4563 
z
" transform="scale(0.015625)"/>
       </defs>
       <use xlink:href="#DejaVuSans-30"/>
       <use xlink:href="#DejaVuSans-2e" x="63.623047"/>
       <use xlink:href="#DejaVuSans-36" x="95.410156"/>
      </g>
     </g>
    </g>
    <g id="xtick_5">
     <g id="line2d_5">
      <g>
       <use xlink:href="#mbb4793c78a" x="641.122288" y="301.370397" style="stroke: #000000; stroke-width: 0.8"/>
      </g>
     </g>
     <g id="text_5">
      <!-- 0.8 -->
      <g transform="translate(633.170726 315.968834)scale(0.1 -0.1)">
       <defs>
        <path id="DejaVuSans-38" d="M 2034 2216 
Q 1584 2216 1326 1975 
Q 1069 1734 1069 1313 
Q 1069 891 1326 650 
Q 1584 409 2034 409 
Q 2484 409 2743 651 
Q 3003 894 3003 1313 
Q 3003 1734 2745 1975 
Q 2488 2216 2034 2216 
z
M 1403 2484 
Q 997 2584 770 2862 
Q 544 3141 544 3541 
Q 544 4100 942 4425 
Q 1341 4750 2034 4750 
Q 2731 4750 3128 4425 
Q 3525 4100 3525 3541 
Q 3525 3141 3298 2862 
Q 3072 2584 2669 2484 
Q 3125 2378 3379 2068 
Q 3634 1759 3634 1313 
Q 3634 634 3220 271 
Q 2806 -91 2034 -91 
Q 1263 -91 848 271 
Q 434 634 434 1313 
Q 434 1759 690 2068 
Q 947 2378 1403 2484 
z
M 1172 3481 
Q 1172 3119 1398 2916 
Q 1625 2713 2034 2713 
Q 2441 2713 2670 2916 
Q 2900 3119 2900 3481 
Q 2900 3844 2670 4047 
Q 2441 4250 2034 4250 
Q 1625 4250 1398 4047 
Q 1172 3844 1172 3481 
z
" transform="scale(0.015625)"/>
       </defs>
       <use xlink:href="#DejaVuSans-30"/>
       <use xlink:href="#DejaVuSans-2e" x="63.623047"/>
       <use xlink:href="#DejaVuSans-38" x="95.410156"/>
      </g>
     </g>
    </g>
    <g id="xtick_6">
     <g id="line2d_6">
      <g>
       <use xlink:href="#mbb4793c78a" x="695.584458" y="301.370397" style="stroke: #000000; stroke-width: 0.8"/>
      </g>
     </g>
     <g id="text_6">
      <!-- 1.0 -->
      <g transform="translate(687.632895 315.968834)scale(0.1 -0.1)">
       <defs>
        <path id="DejaVuSans-31" d="M 794 531 
L 1825 531 
L 1825 4091 
L 703 3866 
L 703 4441 
L 1819 4666 
L 2450 4666 
L 2450 531 
L 3481 531 
L 3481 0 
L 794 0 
L 794 531 
z
" transform="scale(0.015625)"/>
       </defs>
       <use xlink:href="#DejaVuSans-31"/>
       <use xlink:href="#DejaVuSans-2e" x="63.623047"/>
       <use xlink:href="#DejaVuSans-30" x="95.410156"/>
      </g>
     </g>
    </g>
    <g id="text_7">
     <!-- False Positive Rate -->
     <g transform="translate(512.962628 329.646959)scale(0.1 -0.1)">
      <defs>
       <path id="DejaVuSans-46" d="M 628 4666 
L 3309 4666 
L 3309 4134 
L 1259 4134 
L 1259 2759 
L 3109 2759 
L 3109 2228 
L 1259 2228 
L 1259 0 
L 628 0 
L 628 4666 
z
" transform="scale(0.015625)"/>
       <path id="DejaVuSans-61" d="M 2194 1759 
Q 1497 1759 1228 1600 
Q 959 1441 959 1056 
Q 959 750 1161 570 
Q 1363 391 1709 391 
Q 2188 391 2477 730 
Q 2766 1069 2766 1631 
L 2766 1759 
L 2194 1759 
z
M 3341 1997 
L 3341 0 
L 2766 0 
L 2766 531 
Q 2569 213 2275 61 
Q 1981 -91 1556 -91 
Q 1019 -91 701 211 
Q 384 513 384 1019 
Q 384 1609 779 1909 
Q 1175 2209 1959 2209 
L 2766 2209 
L 2766 2266 
Q 2766 2663 2505 2880 
Q 2244 3097 1772 3097 
Q 1472 3097 1187 3025 
Q 903 2953 641 2809 
L 641 3341 
Q 956 3463 1253 3523 
Q 1550 3584 1831 3584 
Q 2591 3584 2966 3190 
Q 3341 2797 3341 1997 
z
" transform="scale(0.015625)"/>
       <path id="DejaVuSans-6c" d="M 603 4863 
L 1178 4863 
L 1178 0 
L 603 0 
L 603 4863 
z
" transform="scale(0.015625)"/>
       <path id="DejaVuSans-73" d="M 2834 3397 
L 2834 2853 
Q 2591 2978 2328 3040 
Q 2066 3103 1784 3103 
Q 1356 3103 1142 2972 
Q 928 2841 928 2578 
Q 928 2378 1081 2264 
Q 1234 2150 1697 2047 
L 1894 2003 
Q 2506 1872 2764 1633 
Q 3022 1394 3022 966 
Q 3022 478 2636 193 
Q 2250 -91 1575 -91 
Q 1294 -91 989 -36 
Q 684 19 347 128 
L 347 722 
Q 666 556 975 473 
Q 1284 391 1588 391 
Q 1994 391 2212 530 
Q 2431 669 2431 922 
Q 2431 1156 2273 1281 
Q 2116 1406 1581 1522 
L 1381 1569 
Q 847 1681 609 1914 
Q 372 2147 372 2553 
Q 372 3047 722 3315 
Q 1072 3584 1716 3584 
Q 2034 3584 2315 3537 
Q 2597 3491 2834 3397 
z
" transform="scale(0.015625)"/>
       <path id="DejaVuSans-65" d="M 3597 1894 
L 3597 1613 
L 953 1613 
Q 991 1019 1311 708 
Q 1631 397 2203 397 
Q 2534 397 2845 478 
Q 3156 559 3463 722 
L 3463 178 
Q 3153 47 2828 -22 
Q 2503 -91 2169 -91 
Q 1331 -91 842 396 
Q 353 884 353 1716 
Q 353 2575 817 3079 
Q 1281 3584 2069 3584 
Q 2775 3584 3186 3129 
Q 3597 2675 3597 1894 
z
M 3022 2063 
Q 3016 2534 2758 2815 
Q 2500 3097 2075 3097 
Q 1594 3097 1305 2825 
Q 1016 2553 972 2059 
L 3022 2063 
z
" transform="scale(0.015625)"/>
       <path id="DejaVuSans-20" transform="scale(0.015625)"/>
       <path id="DejaVuSans-50" d="M 1259 4147 
L 1259 2394 
L 2053 2394 
Q 2494 2394 2734 2622 
Q 2975 2850 2975 3272 
Q 2975 3691 2734 3919 
Q 2494 4147 2053 4147 
L 1259 4147 
z
M 628 4666 
L 2053 4666 
Q 2838 4666 3239 4311 
Q 3641 3956 3641 3272 
Q 3641 2581 3239 2228 
Q 2838 1875 2053 1875 
L 1259 1875 
L 1259 0 
L 628 0 
L 628 4666 
z
" transform="scale(0.015625)"/>
       <path id="DejaVuSans-6f" d="M 1959 3097 
Q 1497 3097 1228 2736 
Q 959 2375 959 1747 
Q 959 1119 1226 758 
Q 1494 397 1959 397 
Q 2419 397 2687 759 
Q 2956 1122 2956 1747 
Q 2956 2369 2687 2733 
Q 2419 3097 1959 3097 
z
M 1959 3584 
Q 2709 3584 3137 3096 
Q 3566 2609 3566 1747 
Q 3566 888 3137 398 
Q 2709 -91 1959 -91 
Q 1206 -91 779 398 
Q 353 888 353 1747 
Q 353 2609 779 3096 
Q 1206 3584 1959 3584 
z
" transform="scale(0.015625)"/>
       <path id="DejaVuSans-69" d="M 603 3500 
L 1178 3500 
L 1178 0 
L 603 0 
L 603 3500 
z
M 603 4863 
L 1178 4863 
L 1178 4134 
L 603 4134 
L 603 4863 
z
" transform="scale(0.015625)"/>
       <path id="DejaVuSans-74" d="M 1172 4494 
L 1172 3500 
L 2356 3500 
L 2356 3053 
L 1172 3053 
L 1172 1153 
Q 1172 725 1289 603 
Q 1406 481 1766 481 
L 2356 481 
L 2356 0 
L 1766 0 
Q 1100 0 847 248 
Q 594 497 594 1153 
L 594 3053 
L 172 3053 
L 172 3500 
L 594 3500 
L 594 4494 
L 1172 4494 
z
" transform="scale(0.015625)"/>
       <path id="DejaVuSans-76" d="M 191 3500 
L 800 3500 
L 1894 563 
L 2988 3500 
L 3597 3500 
L 2284 0 
L 1503 0 
L 191 3500 
z
" transform="scale(0.015625)"/>
       <path id="DejaVuSans-52" d="M 2841 2188 
Q 3044 2119 3236 1894 
Q 3428 1669 3622 1275 
L 4263 0 
L 3584 0 
L 2988 1197 
Q 2756 1666 2539 1819 
Q 2322 1972 1947 1972 
L 1259 1972 
L 1259 0 
L 628 0 
L 628 4666 
L 2053 4666 
Q 2853 4666 3247 4331 
Q 3641 3997 3641 3322 
Q 3641 2881 3436 2590 
Q 3231 2300 2841 2188 
z
M 1259 4147 
L 1259 2491 
L 2053 2491 
Q 2509 2491 2742 2702 
Q 2975 2913 2975 3322 
Q 2975 3731 2742 3939 
Q 2509 4147 2053 4147 
L 1259 4147 
z
" transform="scale(0.015625)"/>
      </defs>
      <use xlink:href="#DejaVuSans-46"/>
      <use xlink:href="#DejaVuSans-61" x="48.394531"/>
      <use xlink:href="#DejaVuSans-6c" x="109.673828"/>
      <use xlink:href="#DejaVuSans-73" x="137.457031"/>
      <use xlink:href="#DejaVuSans-65" x="189.556641"/>
      <use xlink:href="#DejaVuSans-20" x="251.080078"/>
      <use xlink:href="#DejaVuSans-50" x="282.867188"/>
      <use xlink:href="#DejaVuSans-6f" x="339.544922"/>
      <use xlink:href="#DejaVuSans-73" x="400.726562"/>
      <use xlink:href="#DejaVuSans-69" x="452.826172"/>
      <use xlink:href="#DejaVuSans-74" x="480.609375"/>
      <use xlink:href="#DejaVuSans-69" x="519.818359"/>
      <use xlink:href="#DejaVuSans-76" x="547.601562"/>
      <use xlink:href="#DejaVuSans-65" x="606.78125"/>
      <use xlink:href="#DejaVuSans-20" x="668.304688"/>
      <use xlink:href="#DejaVuSans-52" x="700.091797"/>
      <use xlink:href="#DejaVuSans-61" x="767.324219"/>
      <use xlink:href="#DejaVuSans-74" x="828.603516"/>
      <use xlink:href="#DejaVuSans-65" x="867.8125"/>
     </g>
    </g>
   </g>
   <g id="matplotlib.axis_2">
    <g id="ytick_1">
     <g id="line2d_7">
      <defs>
       <path id="mfea607425f" d="M 0 0 
L -3.5 0 
" style="stroke: #000000; stroke-width: 0.8"/>
      </defs>
      <g>
       <use xlink:href="#mfea607425f" x="409.658069" y="289.926651" style="stroke: #000000; stroke-width: 0.8"/>
      </g>
     </g>
     <g id="text_8">
      <!-- 0.0 -->
      <g transform="translate(386.754944 293.72587)scale(0.1 -0.1)">
       <use xlink:href="#DejaVuSans-30"/>
       <use xlink:href="#DejaVuSans-2e" x="63.623047"/>
       <use xlink:href="#DejaVuSans-30" x="95.410156"/>
      </g>
     </g>
    </g>
    <g id="ytick_2">
     <g id="line2d_8">
      <g>
       <use xlink:href="#mfea607425f" x="409.658069" y="244.15167" style="stroke: #000000; stroke-width: 0.8"/>
      </g>
     </g>
     <g id="text_9">
      <!-- 0.2 -->
      <g transform="translate(386.754944 247.950889)scale(0.1 -0.1)">
       <use xlink:href="#DejaVuSans-30"/>
       <use xlink:href="#DejaVuSans-2e" x="63.623047"/>
       <use xlink:href="#DejaVuSans-32" x="95.410156"/>
      </g>
     </g>
    </g>
    <g id="ytick_3">
     <g id="line2d_9">
      <g>
       <use xlink:href="#mfea607425f" x="409.658069" y="198.376689" style="stroke: #000000; stroke-width: 0.8"/>
      </g>
     </g>
     <g id="text_10">
      <!-- 0.4 -->
      <g transform="translate(386.754944 202.175908)scale(0.1 -0.1)">
       <use xlink:href="#DejaVuSans-30"/>
       <use xlink:href="#DejaVuSans-2e" x="63.623047"/>
       <use xlink:href="#DejaVuSans-34" x="95.410156"/>
      </g>
     </g>
    </g>
    <g id="ytick_4">
     <g id="line2d_10">
      <g>
       <use xlink:href="#mfea607425f" x="409.658069" y="152.601708" style="stroke: #000000; stroke-width: 0.8"/>
      </g>
     </g>
     <g id="text_11">
      <!-- 0.6 -->
      <g transform="translate(386.754944 156.400927)scale(0.1 -0.1)">
       <use xlink:href="#DejaVuSans-30"/>
       <use xlink:href="#DejaVuSans-2e" x="63.623047"/>
       <use xlink:href="#DejaVuSans-36" x="95.410156"/>
      </g>
     </g>
    </g>
    <g id="ytick_5">
     <g id="line2d_11">
      <g>
       <use xlink:href="#mfea607425f" x="409.658069" y="106.826727" style="stroke: #000000; stroke-width: 0.8"/>
      </g>
     </g>
     <g id="text_12">
      <!-- 0.8 -->
      <g transform="translate(386.754944 110.625945)scale(0.1 -0.1)">
       <use xlink:href="#DejaVuSans-30"/>
       <use xlink:href="#DejaVuSans-2e" x="63.623047"/>
       <use xlink:href="#DejaVuSans-38" x="95.410156"/>
      </g>
     </g>
    </g>
    <g id="ytick_6">
     <g id="line2d_12">
      <g>
       <use xlink:href="#mfea607425f" x="409.658069" y="61.051745" style="stroke: #000000; stroke-width: 0.8"/>
      </g>
     </g>
     <g id="text_13">
      <!-- 1.0 -->
      <g transform="translate(386.754944 64.850964)scale(0.1 -0.1)">
       <use xlink:href="#DejaVuSans-31"/>
       <use xlink:href="#DejaVuSans-2e" x="63.623047"/>
       <use xlink:href="#DejaVuSans-30" x="95.410156"/>
      </g>
     </g>
    </g>
    <g id="text_14">
     <!-- True Positive Rate -->
     <g transform="translate(380.675257 220.018886)rotate(-90)scale(0.1 -0.1)">
      <defs>
       <path id="DejaVuSans-54" d="M -19 4666 
L 3928 4666 
L 3928 4134 
L 2272 4134 
L 2272 0 
L 1638 0 
L 1638 4134 
L -19 4134 
L -19 4666 
z
" transform="scale(0.015625)"/>
       <path id="DejaVuSans-72" d="M 2631 2963 
Q 2534 3019 2420 3045 
Q 2306 3072 2169 3072 
Q 1681 3072 1420 2755 
Q 1159 2438 1159 1844 
L 1159 0 
L 581 0 
L 581 3500 
L 1159 3500 
L 1159 2956 
Q 1341 3275 1631 3429 
Q 1922 3584 2338 3584 
Q 2397 3584 2469 3576 
Q 2541 3569 2628 3553 
L 2631 2963 
z
" transform="scale(0.015625)"/>
       <path id="DejaVuSans-75" d="M 544 1381 
L 544 3500 
L 1119 3500 
L 1119 1403 
Q 1119 906 1312 657 
Q 1506 409 1894 409 
Q 2359 409 2629 706 
Q 2900 1003 2900 1516 
L 2900 3500 
L 3475 3500 
L 3475 0 
L 2900 0 
L 2900 538 
Q 2691 219 2414 64 
Q 2138 -91 1772 -91 
Q 1169 -91 856 284 
Q 544 659 544 1381 
z
M 1991 3584 
L 1991 3584 
z
" transform="scale(0.015625)"/>
      </defs>
      <use xlink:href="#DejaVuSans-54"/>
      <use xlink:href="#DejaVuSans-72" x="46.333984"/>
      <use xlink:href="#DejaVuSans-75" x="87.447266"/>
      <use xlink:href="#DejaVuSans-65" x="150.826172"/>
      <use xlink:href="#DejaVuSans-20" x="212.349609"/>
      <use xlink:href="#DejaVuSans-50" x="244.136719"/>
      <use xlink:href="#DejaVuSans-6f" x="300.814453"/>
      <use xlink:href="#DejaVuSans-73" x="361.996094"/>
      <use xlink:href="#DejaVuSans-69" x="414.095703"/>
      <use xlink:href="#DejaVuSans-74" x="441.878906"/>
      <use xlink:href="#DejaVuSans-69" x="481.087891"/>
      <use xlink:href="#DejaVuSans-76" x="508.871094"/>
      <use xlink:href="#DejaVuSans-65" x="568.050781"/>
      <use xlink:href="#DejaVuSans-20" x="629.574219"/>
      <use xlink:href="#DejaVuSans-52" x="661.361328"/>
      <use xlink:href="#DejaVuSans-61" x="728.59375"/>
      <use xlink:href="#DejaVuSans-74" x="789.873047"/>
      <use xlink:href="#DejaVuSans-65" x="829.082031"/>
     </g>
    </g>
   </g>
   <g id="line2d_13">
    <path d="M 423.273611 289.926651 
L 427.596006 289.926651 
L 427.596006 251.061101 
L 436.240795 251.061101 
L 436.240795 238.105918 
L 440.563189 238.105918 
L 440.563189 216.513946 
L 444.885583 216.513946 
L 444.885583 207.877157 
L 449.207978 207.877157 
L 449.207978 190.603579 
L 453.530372 190.603579 
L 453.530372 177.648396 
L 457.852766 177.648396 
L 457.852766 173.330001 
L 466.497555 173.330001 
L 466.497555 160.374818 
L 470.81995 160.374818 
L 470.81995 147.419634 
L 479.464738 147.419634 
L 479.464738 143.10124 
L 483.787133 143.10124 
L 483.787133 125.827662 
L 488.109527 125.827662 
L 488.109527 112.872479 
L 505.399105 112.872479 
L 505.399105 104.23569 
L 509.721499 104.23569 
L 509.721499 95.598901 
L 522.688682 95.598901 
L 531.333471 91.280507 
L 539.97826 91.280507 
L 539.97826 86.962112 
L 548.623049 86.962112 
L 548.623049 82.643718 
L 587.524598 82.643718 
L 587.524598 78.325323 
L 600.491781 78.325323 
L 600.491781 74.006929 
L 604.814176 74.006929 
L 604.814176 69.688534 
L 626.426148 69.688534 
L 626.426148 65.37014 
L 686.939669 65.37014 
L 686.939669 61.051745 
L 695.584458 61.051745 
" clip-path="url(#p99ce69368c)" style="fill: none; stroke: #1f77b4; stroke-width: 1.5; stroke-linecap: square"/>
   </g>
   <g id="line2d_14">
    <path d="M 423.273611 289.926651 
L 423.273611 285.608257 
L 423.273611 238.105918 
L 427.596006 238.105918 
L 427.596006 233.787524 
L 436.240795 233.787524 
L 436.240795 216.513946 
L 444.885583 216.513946 
L 444.885583 199.240368 
L 449.207978 199.240368 
L 449.207978 181.96679 
L 466.497555 181.96679 
L 466.497555 164.693212 
L 470.81995 164.693212 
L 470.81995 147.419634 
L 475.142344 147.419634 
L 475.142344 143.10124 
L 488.109527 143.10124 
L 488.109527 138.782846 
L 492.431922 138.782846 
L 492.431922 134.464451 
L 501.07671 134.464451 
L 501.07671 121.509268 
L 509.721499 121.509268 
L 509.721499 117.190873 
L 522.688682 117.190873 
L 522.688682 104.23569 
L 527.011077 104.23569 
L 527.011077 99.917295 
L 548.623049 99.917295 
L 548.623049 95.598901 
L 552.945443 95.598901 
L 552.945443 91.280507 
L 565.912626 91.280507 
L 565.912626 78.325323 
L 574.557415 78.325323 
L 574.557415 74.006929 
L 583.202204 74.006929 
L 583.202204 69.688534 
L 609.13657 69.688534 
L 609.13657 65.37014 
L 613.458964 65.37014 
L 613.458964 61.051745 
L 695.584458 61.051745 
" clip-path="url(#p99ce69368c)" style="fill: none; stroke: #ff7f0e; stroke-width: 1.5; stroke-linecap: square"/>
   </g>
   <g id="line2d_15">
    <path d="M 423.273611 289.926651 
L 423.273611 285.608257 
L 423.273611 186.285185 
L 427.596006 186.285185 
L 427.596006 134.464451 
L 436.240795 134.464451 
L 436.240795 130.146057 
L 444.885583 130.146057 
L 444.885583 125.827662 
L 457.852766 125.827662 
L 457.852766 104.23569 
L 462.175161 104.23569 
L 462.175161 95.598901 
L 466.497555 95.598901 
L 466.497555 86.962112 
L 470.81995 86.962112 
L 470.81995 74.006929 
L 531.333471 74.006929 
L 531.333471 69.688534 
L 552.945443 69.688534 
L 552.945443 65.37014 
L 565.912626 65.37014 
L 565.912626 61.051745 
L 695.584458 61.051745 
" clip-path="url(#p99ce69368c)" style="fill: none; stroke: #2ca02c; stroke-width: 1.5; stroke-linecap: square"/>
   </g>
   <g id="line2d_16">
    <path d="M 423.273611 289.926651 
L 427.596006 289.926651 
L 427.596006 251.061101 
L 436.240795 251.061101 
L 436.240795 220.83234 
L 440.563189 220.83234 
L 440.563189 212.195551 
L 444.885583 212.195551 
L 444.885583 207.877157 
L 449.207978 207.877157 
L 449.207978 194.921973 
L 453.530372 194.921973 
L 453.530372 169.011607 
L 457.852766 169.011607 
L 457.852766 164.693212 
L 462.175161 164.693212 
L 462.175161 156.056423 
L 475.142344 156.056423 
L 475.142344 147.419634 
L 483.787133 147.419634 
L 483.787133 125.827662 
L 496.754316 125.827662 
L 496.754316 121.509268 
L 501.07671 121.509268 
L 501.07671 108.554084 
L 514.043894 108.554084 
L 514.043894 104.23569 
L 531.333471 104.23569 
L 531.333471 99.917295 
L 535.655865 99.917295 
L 535.655865 91.280507 
L 561.590232 91.280507 
L 561.590232 86.962112 
L 565.912626 86.962112 
L 565.912626 82.643718 
L 583.202204 82.643718 
L 583.202204 78.325323 
L 587.524598 78.325323 
L 587.524598 74.006929 
L 596.169387 74.006929 
L 596.169387 69.688534 
L 609.13657 69.688534 
L 609.13657 65.37014 
L 682.617275 65.37014 
L 682.617275 61.051745 
L 695.584458 61.051745 
" clip-path="url(#p99ce69368c)" style="fill: none; stroke: #d62728; stroke-width: 1.5; stroke-linecap: square"/>
   </g>
   <g id="line2d_17">
    <path d="M 423.273611 289.926651 
L 423.273611 285.608257 
L 423.273611 242.424312 
L 427.596006 242.424312 
L 427.596006 233.787524 
L 436.240795 233.787524 
L 436.240795 212.195551 
L 440.563189 212.195551 
L 440.563189 207.877157 
L 444.885583 207.877157 
L 444.885583 186.285185 
L 457.852766 186.285185 
L 457.852766 181.96679 
L 466.497555 181.96679 
L 466.497555 160.374818 
L 470.81995 160.374818 
L 470.81995 156.056423 
L 479.464738 156.056423 
L 479.464738 147.419634 
L 483.787133 147.419634 
L 483.787133 138.782846 
L 488.109527 138.782846 
L 488.109527 130.146057 
L 492.431922 130.146057 
L 492.431922 125.827662 
L 496.754316 125.827662 
L 496.754316 121.509268 
L 509.721499 121.509268 
L 509.721499 117.190873 
L 514.043894 117.190873 
L 514.043894 112.872479 
L 522.688682 112.872479 
L 522.688682 108.554084 
L 527.011077 108.554084 
L 527.011077 104.23569 
L 531.333471 104.23569 
L 531.333471 99.917295 
L 539.97826 99.917295 
L 539.97826 95.598901 
L 548.623049 95.598901 
L 548.623049 78.325323 
L 596.169387 78.325323 
L 596.169387 74.006929 
L 604.814176 74.006929 
L 604.814176 69.688534 
L 617.781359 69.688534 
L 617.781359 65.37014 
L 626.426148 65.37014 
L 626.426148 61.051745 
L 695.584458 61.051745 
" clip-path="url(#p99ce69368c)" style="fill: none; stroke: #9467bd; stroke-width: 1.5; stroke-linecap: square"/>
   </g>
   <g id="line2d_18">
    <path d="M 423.273611 289.926651 
L 423.273611 285.608257 
L 423.273611 190.603579 
L 427.596006 190.603579 
L 427.596006 169.011607 
L 431.9184 169.011607 
L 431.9184 143.10124 
L 436.240795 143.10124 
L 436.240795 134.464451 
L 440.563189 134.464451 
L 440.563189 125.827662 
L 444.885583 125.827662 
L 444.885583 121.509268 
L 457.852766 121.509268 
L 457.852766 108.554084 
L 462.175161 108.554084 
L 462.175161 78.325323 
L 496.754316 78.325323 
L 496.754316 74.006929 
L 535.655865 74.006929 
L 535.655865 69.688534 
L 544.300654 69.688534 
L 544.300654 65.37014 
L 552.945443 65.37014 
L 552.945443 61.051745 
L 695.584458 61.051745 
" clip-path="url(#p99ce69368c)" style="fill: none; stroke: #8c564b; stroke-width: 1.5; stroke-linecap: square"/>
   </g>
   <g id="line2d_19">
    <path d="M 423.273611 289.926651 
L 695.584458 61.051745 
" clip-path="url(#p99ce69368c)" style="fill: none; stroke-dasharray: 5.55,2.4; stroke-dashoffset: 0; stroke: #808080; stroke-width: 1.5"/>
   </g>
   <g id="patch_3">
    <path d="M 409.658069 301.370397 
L 409.658069 49.608 
" style="fill: none; stroke: #000000; stroke-width: 0.8; stroke-linejoin: miter; stroke-linecap: square"/>
   </g>
   <g id="patch_4">
    <path d="M 709.2 301.370397 
L 709.2 49.608 
" style="fill: none; stroke: #000000; stroke-width: 0.8; stroke-linejoin: miter; stroke-linecap: square"/>
   </g>
   <g id="patch_5">
    <path d="M 409.658069 301.370397 
L 709.2 301.370397 
" style="fill: none; stroke: #000000; stroke-width: 0.8; stroke-linejoin: miter; stroke-linecap: square"/>
   </g>
   <g id="patch_6">
    <path d="M 409.658069 49.608 
L 709.2 49.608 
" style="fill: none; stroke: #000000; stroke-width: 0.8; stroke-linejoin: miter; stroke-linecap: square"/>
   </g>
   <g id="text_15">
    <!-- B -->
    <g transform="translate(379.703876 29.558139)scale(0.2 -0.2)">
     <defs>
      <path id="DejaVuSans-42" d="M 1259 2228 
L 1259 519 
L 2272 519 
Q 2781 519 3026 730 
Q 3272 941 3272 1375 
Q 3272 1813 3026 2020 
Q 2781 2228 2272 2228 
L 1259 2228 
z
M 1259 4147 
L 1259 2741 
L 2194 2741 
Q 2656 2741 2882 2914 
Q 3109 3088 3109 3444 
Q 3109 3797 2882 3972 
Q 2656 4147 2194 4147 
L 1259 4147 
z
M 628 4666 
L 2241 4666 
Q 2963 4666 3353 4366 
Q 3744 4066 3744 3513 
Q 3744 3084 3544 2831 
Q 3344 2578 2956 2516 
Q 3422 2416 3680 2098 
Q 3938 1781 3938 1306 
Q 3938 681 3513 340 
Q 3088 0 2303 0 
L 628 0 
L 628 4666 
z
" transform="scale(0.015625)"/>
     </defs>
     <use xlink:href="#DejaVuSans-42"/>
    </g>
   </g>
   <g id="legend_1">
    <g id="patch_7">
     <path d="M 523.578125 296.370397 
L 702.2 296.370397 
Q 704.2 296.370397 704.2 294.370397 
L 704.2 205.632897 
Q 704.2 203.632897 702.2 203.632897 
L 523.578125 203.632897 
Q 521.578125 203.632897 521.578125 205.632897 
L 521.578125 294.370397 
Q 521.578125 296.370397 523.578125 296.370397 
z
" style="fill: #ffffff; opacity: 0.8; stroke: #cccccc; stroke-linejoin: miter"/>
    </g>
    <g id="line2d_20">
     <path d="M 525.578125 211.731334 
L 535.578125 211.731334 
L 545.578125 211.731334 
" style="fill: none; stroke: #1f77b4; stroke-width: 1.5; stroke-linecap: square"/>
    </g>
    <g id="text_16">
     <!-- hla_False_features_bool -->
     <g transform="translate(553.578125 215.231334)scale(0.1 -0.1)">
      <defs>
       <path id="DejaVuSans-68" d="M 3513 2113 
L 3513 0 
L 2938 0 
L 2938 2094 
Q 2938 2591 2744 2837 
Q 2550 3084 2163 3084 
Q 1697 3084 1428 2787 
Q 1159 2491 1159 1978 
L 1159 0 
L 581 0 
L 581 4863 
L 1159 4863 
L 1159 2956 
Q 1366 3272 1645 3428 
Q 1925 3584 2291 3584 
Q 2894 3584 3203 3211 
Q 3513 2838 3513 2113 
z
" transform="scale(0.015625)"/>
       <path id="DejaVuSans-5f" d="M 3263 -1063 
L 3263 -1509 
L -63 -1509 
L -63 -1063 
L 3263 -1063 
z
" transform="scale(0.015625)"/>
       <path id="DejaVuSans-66" d="M 2375 4863 
L 2375 4384 
L 1825 4384 
Q 1516 4384 1395 4259 
Q 1275 4134 1275 3809 
L 1275 3500 
L 2222 3500 
L 2222 3053 
L 1275 3053 
L 1275 0 
L 697 0 
L 697 3053 
L 147 3053 
L 147 3500 
L 697 3500 
L 697 3744 
Q 697 4328 969 4595 
Q 1241 4863 1831 4863 
L 2375 4863 
z
" transform="scale(0.015625)"/>
       <path id="DejaVuSans-62" d="M 3116 1747 
Q 3116 2381 2855 2742 
Q 2594 3103 2138 3103 
Q 1681 3103 1420 2742 
Q 1159 2381 1159 1747 
Q 1159 1113 1420 752 
Q 1681 391 2138 391 
Q 2594 391 2855 752 
Q 3116 1113 3116 1747 
z
M 1159 2969 
Q 1341 3281 1617 3432 
Q 1894 3584 2278 3584 
Q 2916 3584 3314 3078 
Q 3713 2572 3713 1747 
Q 3713 922 3314 415 
Q 2916 -91 2278 -91 
Q 1894 -91 1617 61 
Q 1341 213 1159 525 
L 1159 0 
L 581 0 
L 581 4863 
L 1159 4863 
L 1159 2969 
z
" transform="scale(0.015625)"/>
      </defs>
      <use xlink:href="#DejaVuSans-68"/>
      <use xlink:href="#DejaVuSans-6c" x="63.378906"/>
      <use xlink:href="#DejaVuSans-61" x="91.162109"/>
      <use xlink:href="#DejaVuSans-5f" x="152.441406"/>
      <use xlink:href="#DejaVuSans-46" x="202.441406"/>
      <use xlink:href="#DejaVuSans-61" x="250.835938"/>
      <use xlink:href="#DejaVuSans-6c" x="312.115234"/>
      <use xlink:href="#DejaVuSans-73" x="339.898438"/>
      <use xlink:href="#DejaVuSans-65" x="391.998047"/>
      <use xlink:href="#DejaVuSans-5f" x="453.521484"/>
      <use xlink:href="#DejaVuSans-66" x="503.521484"/>
      <use xlink:href="#DejaVuSans-65" x="538.726562"/>
      <use xlink:href="#DejaVuSans-61" x="600.25"/>
      <use xlink:href="#DejaVuSans-74" x="661.529297"/>
      <use xlink:href="#DejaVuSans-75" x="700.738281"/>
      <use xlink:href="#DejaVuSans-72" x="764.117188"/>
      <use xlink:href="#DejaVuSans-65" x="802.980469"/>
      <use xlink:href="#DejaVuSans-73" x="864.503906"/>
      <use xlink:href="#DejaVuSans-5f" x="916.603516"/>
      <use xlink:href="#DejaVuSans-62" x="966.603516"/>
      <use xlink:href="#DejaVuSans-6f" x="1030.080078"/>
      <use xlink:href="#DejaVuSans-6f" x="1091.261719"/>
      <use xlink:href="#DejaVuSans-6c" x="1152.443359"/>
     </g>
    </g>
    <g id="line2d_21">
     <path d="M 525.578125 226.687584 
L 535.578125 226.687584 
L 545.578125 226.687584 
" style="fill: none; stroke: #ff7f0e; stroke-width: 1.5; stroke-linecap: square"/>
    </g>
    <g id="text_17">
     <!-- hla_False_features_categorial -->
     <g transform="translate(553.578125 230.187584)scale(0.1 -0.1)">
      <defs>
       <path id="DejaVuSans-63" d="M 3122 3366 
L 3122 2828 
Q 2878 2963 2633 3030 
Q 2388 3097 2138 3097 
Q 1578 3097 1268 2742 
Q 959 2388 959 1747 
Q 959 1106 1268 751 
Q 1578 397 2138 397 
Q 2388 397 2633 464 
Q 2878 531 3122 666 
L 3122 134 
Q 2881 22 2623 -34 
Q 2366 -91 2075 -91 
Q 1284 -91 818 406 
Q 353 903 353 1747 
Q 353 2603 823 3093 
Q 1294 3584 2113 3584 
Q 2378 3584 2631 3529 
Q 2884 3475 3122 3366 
z
" transform="scale(0.015625)"/>
       <path id="DejaVuSans-67" d="M 2906 1791 
Q 2906 2416 2648 2759 
Q 2391 3103 1925 3103 
Q 1463 3103 1205 2759 
Q 947 2416 947 1791 
Q 947 1169 1205 825 
Q 1463 481 1925 481 
Q 2391 481 2648 825 
Q 2906 1169 2906 1791 
z
M 3481 434 
Q 3481 -459 3084 -895 
Q 2688 -1331 1869 -1331 
Q 1566 -1331 1297 -1286 
Q 1028 -1241 775 -1147 
L 775 -588 
Q 1028 -725 1275 -790 
Q 1522 -856 1778 -856 
Q 2344 -856 2625 -561 
Q 2906 -266 2906 331 
L 2906 616 
Q 2728 306 2450 153 
Q 2172 0 1784 0 
Q 1141 0 747 490 
Q 353 981 353 1791 
Q 353 2603 747 3093 
Q 1141 3584 1784 3584 
Q 2172 3584 2450 3431 
Q 2728 3278 2906 2969 
L 2906 3500 
L 3481 3500 
L 3481 434 
z
" transform="scale(0.015625)"/>
      </defs>
      <use xlink:href="#DejaVuSans-68"/>
      <use xlink:href="#DejaVuSans-6c" x="63.378906"/>
      <use xlink:href="#DejaVuSans-61" x="91.162109"/>
      <use xlink:href="#DejaVuSans-5f" x="152.441406"/>
      <use xlink:href="#DejaVuSans-46" x="202.441406"/>
      <use xlink:href="#DejaVuSans-61" x="250.835938"/>
      <use xlink:href="#DejaVuSans-6c" x="312.115234"/>
      <use xlink:href="#DejaVuSans-73" x="339.898438"/>
      <use xlink:href="#DejaVuSans-65" x="391.998047"/>
      <use xlink:href="#DejaVuSans-5f" x="453.521484"/>
      <use xlink:href="#DejaVuSans-66" x="503.521484"/>
      <use xlink:href="#DejaVuSans-65" x="538.726562"/>
      <use xlink:href="#DejaVuSans-61" x="600.25"/>
      <use xlink:href="#DejaVuSans-74" x="661.529297"/>
      <use xlink:href="#DejaVuSans-75" x="700.738281"/>
      <use xlink:href="#DejaVuSans-72" x="764.117188"/>
      <use xlink:href="#DejaVuSans-65" x="802.980469"/>
      <use xlink:href="#DejaVuSans-73" x="864.503906"/>
      <use xlink:href="#DejaVuSans-5f" x="916.603516"/>
      <use xlink:href="#DejaVuSans-63" x="966.603516"/>
      <use xlink:href="#DejaVuSans-61" x="1021.583984"/>
      <use xlink:href="#DejaVuSans-74" x="1082.863281"/>
      <use xlink:href="#DejaVuSans-65" x="1122.072266"/>
      <use xlink:href="#DejaVuSans-67" x="1183.595703"/>
      <use xlink:href="#DejaVuSans-6f" x="1247.072266"/>
      <use xlink:href="#DejaVuSans-72" x="1308.253906"/>
      <use xlink:href="#DejaVuSans-69" x="1349.367188"/>
      <use xlink:href="#DejaVuSans-61" x="1377.150391"/>
      <use xlink:href="#DejaVuSans-6c" x="1438.429688"/>
     </g>
    </g>
    <g id="line2d_22">
     <path d="M 525.578125 241.643834 
L 535.578125 241.643834 
L 545.578125 241.643834 
" style="fill: none; stroke: #2ca02c; stroke-width: 1.5; stroke-linecap: square"/>
    </g>
    <g id="text_18">
     <!-- hla_False_features_freq -->
     <g transform="translate(553.578125 245.143834)scale(0.1 -0.1)">
      <defs>
       <path id="DejaVuSans-71" d="M 947 1747 
Q 947 1113 1208 752 
Q 1469 391 1925 391 
Q 2381 391 2643 752 
Q 2906 1113 2906 1747 
Q 2906 2381 2643 2742 
Q 2381 3103 1925 3103 
Q 1469 3103 1208 2742 
Q 947 2381 947 1747 
z
M 2906 525 
Q 2725 213 2448 61 
Q 2172 -91 1784 -91 
Q 1150 -91 751 415 
Q 353 922 353 1747 
Q 353 2572 751 3078 
Q 1150 3584 1784 3584 
Q 2172 3584 2448 3432 
Q 2725 3281 2906 2969 
L 2906 3500 
L 3481 3500 
L 3481 -1331 
L 2906 -1331 
L 2906 525 
z
" transform="scale(0.015625)"/>
      </defs>
      <use xlink:href="#DejaVuSans-68"/>
      <use xlink:href="#DejaVuSans-6c" x="63.378906"/>
      <use xlink:href="#DejaVuSans-61" x="91.162109"/>
      <use xlink:href="#DejaVuSans-5f" x="152.441406"/>
      <use xlink:href="#DejaVuSans-46" x="202.441406"/>
      <use xlink:href="#DejaVuSans-61" x="250.835938"/>
      <use xlink:href="#DejaVuSans-6c" x="312.115234"/>
      <use xlink:href="#DejaVuSans-73" x="339.898438"/>
      <use xlink:href="#DejaVuSans-65" x="391.998047"/>
      <use xlink:href="#DejaVuSans-5f" x="453.521484"/>
      <use xlink:href="#DejaVuSans-66" x="503.521484"/>
      <use xlink:href="#DejaVuSans-65" x="538.726562"/>
      <use xlink:href="#DejaVuSans-61" x="600.25"/>
      <use xlink:href="#DejaVuSans-74" x="661.529297"/>
      <use xlink:href="#DejaVuSans-75" x="700.738281"/>
      <use xlink:href="#DejaVuSans-72" x="764.117188"/>
      <use xlink:href="#DejaVuSans-65" x="802.980469"/>
      <use xlink:href="#DejaVuSans-73" x="864.503906"/>
      <use xlink:href="#DejaVuSans-5f" x="916.603516"/>
      <use xlink:href="#DejaVuSans-66" x="966.603516"/>
      <use xlink:href="#DejaVuSans-72" x="1001.808594"/>
      <use xlink:href="#DejaVuSans-65" x="1040.671875"/>
      <use xlink:href="#DejaVuSans-71" x="1102.195312"/>
     </g>
    </g>
    <g id="line2d_23">
     <path d="M 525.578125 256.600084 
L 535.578125 256.600084 
L 545.578125 256.600084 
" style="fill: none; stroke: #d62728; stroke-width: 1.5; stroke-linecap: square"/>
    </g>
    <g id="text_19">
     <!-- hla_True_features_bool -->
     <g transform="translate(553.578125 260.100084)scale(0.1 -0.1)">
      <use xlink:href="#DejaVuSans-68"/>
      <use xlink:href="#DejaVuSans-6c" x="63.378906"/>
      <use xlink:href="#DejaVuSans-61" x="91.162109"/>
      <use xlink:href="#DejaVuSans-5f" x="152.441406"/>
      <use xlink:href="#DejaVuSans-54" x="202.441406"/>
      <use xlink:href="#DejaVuSans-72" x="248.775391"/>
      <use xlink:href="#DejaVuSans-75" x="289.888672"/>
      <use xlink:href="#DejaVuSans-65" x="353.267578"/>
      <use xlink:href="#DejaVuSans-5f" x="414.791016"/>
      <use xlink:href="#DejaVuSans-66" x="464.791016"/>
      <use xlink:href="#DejaVuSans-65" x="499.996094"/>
      <use xlink:href="#DejaVuSans-61" x="561.519531"/>
      <use xlink:href="#DejaVuSans-74" x="622.798828"/>
      <use xlink:href="#DejaVuSans-75" x="662.007812"/>
      <use xlink:href="#DejaVuSans-72" x="725.386719"/>
      <use xlink:href="#DejaVuSans-65" x="764.25"/>
      <use xlink:href="#DejaVuSans-73" x="825.773438"/>
      <use xlink:href="#DejaVuSans-5f" x="877.873047"/>
      <use xlink:href="#DejaVuSans-62" x="927.873047"/>
      <use xlink:href="#DejaVuSans-6f" x="991.349609"/>
      <use xlink:href="#DejaVuSans-6f" x="1052.53125"/>
      <use xlink:href="#DejaVuSans-6c" x="1113.712891"/>
     </g>
    </g>
    <g id="line2d_24">
     <path d="M 525.578125 271.556334 
L 535.578125 271.556334 
L 545.578125 271.556334 
" style="fill: none; stroke: #9467bd; stroke-width: 1.5; stroke-linecap: square"/>
    </g>
    <g id="text_20">
     <!-- hla_True_features_categorial -->
     <g transform="translate(553.578125 275.056334)scale(0.1 -0.1)">
      <use xlink:href="#DejaVuSans-68"/>
      <use xlink:href="#DejaVuSans-6c" x="63.378906"/>
      <use xlink:href="#DejaVuSans-61" x="91.162109"/>
      <use xlink:href="#DejaVuSans-5f" x="152.441406"/>
      <use xlink:href="#DejaVuSans-54" x="202.441406"/>
      <use xlink:href="#DejaVuSans-72" x="248.775391"/>
      <use xlink:href="#DejaVuSans-75" x="289.888672"/>
      <use xlink:href="#DejaVuSans-65" x="353.267578"/>
      <use xlink:href="#DejaVuSans-5f" x="414.791016"/>
      <use xlink:href="#DejaVuSans-66" x="464.791016"/>
      <use xlink:href="#DejaVuSans-65" x="499.996094"/>
      <use xlink:href="#DejaVuSans-61" x="561.519531"/>
      <use xlink:href="#DejaVuSans-74" x="622.798828"/>
      <use xlink:href="#DejaVuSans-75" x="662.007812"/>
      <use xlink:href="#DejaVuSans-72" x="725.386719"/>
      <use xlink:href="#DejaVuSans-65" x="764.25"/>
      <use xlink:href="#DejaVuSans-73" x="825.773438"/>
      <use xlink:href="#DejaVuSans-5f" x="877.873047"/>
      <use xlink:href="#DejaVuSans-63" x="927.873047"/>
      <use xlink:href="#DejaVuSans-61" x="982.853516"/>
      <use xlink:href="#DejaVuSans-74" x="1044.132812"/>
      <use xlink:href="#DejaVuSans-65" x="1083.341797"/>
      <use xlink:href="#DejaVuSans-67" x="1144.865234"/>
      <use xlink:href="#DejaVuSans-6f" x="1208.341797"/>
      <use xlink:href="#DejaVuSans-72" x="1269.523438"/>
      <use xlink:href="#DejaVuSans-69" x="1310.636719"/>
      <use xlink:href="#DejaVuSans-61" x="1338.419922"/>
      <use xlink:href="#DejaVuSans-6c" x="1399.699219"/>
     </g>
    </g>
    <g id="line2d_25">
     <path d="M 525.578125 286.512584 
L 535.578125 286.512584 
L 545.578125 286.512584 
" style="fill: none; stroke: #8c564b; stroke-width: 1.5; stroke-linecap: square"/>
    </g>
    <g id="text_21">
     <!-- hla_True_features_freq -->
     <g transform="translate(553.578125 290.012584)scale(0.1 -0.1)">
      <use xlink:href="#DejaVuSans-68"/>
      <use xlink:href="#DejaVuSans-6c" x="63.378906"/>
      <use xlink:href="#DejaVuSans-61" x="91.162109"/>
      <use xlink:href="#DejaVuSans-5f" x="152.441406"/>
      <use xlink:href="#DejaVuSans-54" x="202.441406"/>
      <use xlink:href="#DejaVuSans-72" x="248.775391"/>
      <use xlink:href="#DejaVuSans-75" x="289.888672"/>
      <use xlink:href="#DejaVuSans-65" x="353.267578"/>
      <use xlink:href="#DejaVuSans-5f" x="414.791016"/>
      <use xlink:href="#DejaVuSans-66" x="464.791016"/>
      <use xlink:href="#DejaVuSans-65" x="499.996094"/>
      <use xlink:href="#DejaVuSans-61" x="561.519531"/>
      <use xlink:href="#DejaVuSans-74" x="622.798828"/>
      <use xlink:href="#DejaVuSans-75" x="662.007812"/>
      <use xlink:href="#DejaVuSans-72" x="725.386719"/>
      <use xlink:href="#DejaVuSans-65" x="764.25"/>
      <use xlink:href="#DejaVuSans-73" x="825.773438"/>
      <use xlink:href="#DejaVuSans-5f" x="877.873047"/>
      <use xlink:href="#DejaVuSans-66" x="927.873047"/>
      <use xlink:href="#DejaVuSans-72" x="963.078125"/>
      <use xlink:href="#DejaVuSans-65" x="1001.941406"/>
      <use xlink:href="#DejaVuSans-71" x="1063.464844"/>
     </g>
    </g>
   </g>
  </g>
  <g id="axes_2">
   <g id="patch_8">
    <path d="M 62.306138 301.370397 
L 361.848069 301.370397 
L 361.848069 49.608 
L 62.306138 49.608 
z
" style="fill: #ffffff"/>
   </g>
   <g id="patch_9">
    <path d="M 72.290869 234.713777 
L 152.168717 234.713777 
L 152.168717 210.805834 
L 72.290869 210.805834 
L 72.290869 234.713777 
z
" clip-path="url(#pa5fa69be26)" style="fill: #f2fdfd; stroke: #949494; stroke-width: 1.5; stroke-linejoin: miter"/>
   </g>
   <g id="patch_10">
    <path d="M 172.13818 281.936517 
L 252.016028 281.936517 
L 252.016028 265.956249 
L 172.13818 265.956249 
L 172.13818 281.936517 
z
" clip-path="url(#pa5fa69be26)" style="fill: #f2fdfd; stroke: #949494; stroke-width: 1.5; stroke-linejoin: miter"/>
   </g>
   <g id="patch_11">
    <path d="M 271.98549 66.474435 
L 351.863338 66.474435 
L 351.863338 62.859309 
L 271.98549 62.859309 
L 271.98549 66.474435 
z
" clip-path="url(#pa5fa69be26)" style="fill: #f2fdfd; stroke: #949494; stroke-width: 1.5; stroke-linejoin: miter"/>
   </g>
   <g id="PathCollection_1"/>
   <g id="PathCollection_2"/>
   <g id="matplotlib.axis_3">
    <g id="xtick_7">
     <g id="line2d_26">
      <g>
       <use xlink:href="#mbb4793c78a" x="112.229793" y="301.370397" style="stroke: #000000; stroke-width: 0.8"/>
      </g>
     </g>
     <g id="text_22">
      <!-- bool -->
      <g transform="translate(103.135729 322.817532)rotate(-20)scale(0.1 -0.1)">
       <use xlink:href="#DejaVuSans-62"/>
       <use xlink:href="#DejaVuSans-6f" x="63.476562"/>
       <use xlink:href="#DejaVuSans-6f" x="124.658203"/>
       <use xlink:href="#DejaVuSans-6c" x="185.839844"/>
      </g>
     </g>
    </g>
    <g id="xtick_8">
     <g id="line2d_27">
      <g>
       <use xlink:href="#mbb4793c78a" x="212.077104" y="301.370397" style="stroke: #000000; stroke-width: 0.8"/>
      </g>
     </g>
     <g id="text_23">
      <!-- categorial -->
      <g transform="translate(189.546169 332.598774)rotate(-20)scale(0.1 -0.1)">
       <use xlink:href="#DejaVuSans-63"/>
       <use xlink:href="#DejaVuSans-61" x="54.980469"/>
       <use xlink:href="#DejaVuSans-74" x="116.259766"/>
       <use xlink:href="#DejaVuSans-65" x="155.46875"/>
       <use xlink:href="#DejaVuSans-67" x="216.992188"/>
       <use xlink:href="#DejaVuSans-6f" x="280.46875"/>
       <use xlink:href="#DejaVuSans-72" x="341.650391"/>
       <use xlink:href="#DejaVuSans-69" x="382.763672"/>
       <use xlink:href="#DejaVuSans-61" x="410.546875"/>
       <use xlink:href="#DejaVuSans-6c" x="471.826172"/>
      </g>
     </g>
    </g>
    <g id="xtick_9">
     <g id="line2d_28">
      <g>
       <use xlink:href="#mbb4793c78a" x="311.924414" y="301.370397" style="stroke: #000000; stroke-width: 0.8"/>
      </g>
     </g>
     <g id="text_24">
      <!-- freq -->
      <g transform="translate(303.514564 322.319465)rotate(-20)scale(0.1 -0.1)">
       <use xlink:href="#DejaVuSans-66"/>
       <use xlink:href="#DejaVuSans-72" x="35.205078"/>
       <use xlink:href="#DejaVuSans-65" x="74.068359"/>
       <use xlink:href="#DejaVuSans-71" x="135.591797"/>
      </g>
     </g>
    </g>
    <g id="text_25">
     <!-- feature_type -->
     <g transform="translate(180.357572 346.151478)scale(0.1 -0.1)">
      <defs>
       <path id="DejaVuSans-79" d="M 2059 -325 
Q 1816 -950 1584 -1140 
Q 1353 -1331 966 -1331 
L 506 -1331 
L 506 -850 
L 844 -850 
Q 1081 -850 1212 -737 
Q 1344 -625 1503 -206 
L 1606 56 
L 191 3500 
L 800 3500 
L 1894 763 
L 2988 3500 
L 3597 3500 
L 2059 -325 
z
" transform="scale(0.015625)"/>
       <path id="DejaVuSans-70" d="M 1159 525 
L 1159 -1331 
L 581 -1331 
L 581 3500 
L 1159 3500 
L 1159 2969 
Q 1341 3281 1617 3432 
Q 1894 3584 2278 3584 
Q 2916 3584 3314 3078 
Q 3713 2572 3713 1747 
Q 3713 922 3314 415 
Q 2916 -91 2278 -91 
Q 1894 -91 1617 61 
Q 1341 213 1159 525 
z
M 3116 1747 
Q 3116 2381 2855 2742 
Q 2594 3103 2138 3103 
Q 1681 3103 1420 2742 
Q 1159 2381 1159 1747 
Q 1159 1113 1420 752 
Q 1681 391 2138 391 
Q 2594 391 2855 752 
Q 3116 1113 3116 1747 
z
" transform="scale(0.015625)"/>
      </defs>
      <use xlink:href="#DejaVuSans-66"/>
      <use xlink:href="#DejaVuSans-65" x="35.205078"/>
      <use xlink:href="#DejaVuSans-61" x="96.728516"/>
      <use xlink:href="#DejaVuSans-74" x="158.007812"/>
      <use xlink:href="#DejaVuSans-75" x="197.216797"/>
      <use xlink:href="#DejaVuSans-72" x="260.595703"/>
      <use xlink:href="#DejaVuSans-65" x="299.458984"/>
      <use xlink:href="#DejaVuSans-5f" x="360.982422"/>
      <use xlink:href="#DejaVuSans-74" x="410.982422"/>
      <use xlink:href="#DejaVuSans-79" x="450.191406"/>
      <use xlink:href="#DejaVuSans-70" x="509.371094"/>
      <use xlink:href="#DejaVuSans-65" x="572.847656"/>
     </g>
    </g>
   </g>
   <g id="matplotlib.axis_4">
    <g id="ytick_7">
     <g id="line2d_29">
      <g>
       <use xlink:href="#mfea607425f" x="62.306138" y="275.79026" style="stroke: #000000; stroke-width: 0.8"/>
      </g>
     </g>
     <g id="text_26">
      <!-- 0.700 -->
      <g transform="translate(27.693205 288.922633)rotate(-20)scale(0.1 -0.1)">
       <defs>
        <path id="DejaVuSans-37" d="M 525 4666 
L 3525 4666 
L 3525 4397 
L 1831 0 
L 1172 0 
L 2766 4134 
L 525 4134 
L 525 4666 
z
" transform="scale(0.015625)"/>
       </defs>
       <use xlink:href="#DejaVuSans-30"/>
       <use xlink:href="#DejaVuSans-2e" x="63.623047"/>
       <use xlink:href="#DejaVuSans-37" x="95.410156"/>
       <use xlink:href="#DejaVuSans-30" x="159.033203"/>
       <use xlink:href="#DejaVuSans-30" x="222.65625"/>
      </g>
     </g>
    </g>
    <g id="ytick_8">
     <g id="line2d_30">
      <g>
       <use xlink:href="#mfea607425f" x="62.306138" y="241.627315" style="stroke: #000000; stroke-width: 0.8"/>
      </g>
     </g>
     <g id="text_27">
      <!-- 0.725 -->
      <g transform="translate(27.693205 254.759687)rotate(-20)scale(0.1 -0.1)">
       <defs>
        <path id="DejaVuSans-35" d="M 691 4666 
L 3169 4666 
L 3169 4134 
L 1269 4134 
L 1269 2991 
Q 1406 3038 1543 3061 
Q 1681 3084 1819 3084 
Q 2600 3084 3056 2656 
Q 3513 2228 3513 1497 
Q 3513 744 3044 326 
Q 2575 -91 1722 -91 
Q 1428 -91 1123 -41 
Q 819 9 494 109 
L 494 744 
Q 775 591 1075 516 
Q 1375 441 1709 441 
Q 2250 441 2565 725 
Q 2881 1009 2881 1497 
Q 2881 1984 2565 2268 
Q 2250 2553 1709 2553 
Q 1456 2553 1204 2497 
Q 953 2441 691 2322 
L 691 4666 
z
" transform="scale(0.015625)"/>
       </defs>
       <use xlink:href="#DejaVuSans-30"/>
       <use xlink:href="#DejaVuSans-2e" x="63.623047"/>
       <use xlink:href="#DejaVuSans-37" x="95.410156"/>
       <use xlink:href="#DejaVuSans-32" x="159.033203"/>
       <use xlink:href="#DejaVuSans-35" x="222.65625"/>
      </g>
     </g>
    </g>
    <g id="ytick_9">
     <g id="line2d_31">
      <g>
       <use xlink:href="#mfea607425f" x="62.306138" y="207.464369" style="stroke: #000000; stroke-width: 0.8"/>
      </g>
     </g>
     <g id="text_28">
      <!-- 0.750 -->
      <g transform="translate(27.693205 220.596741)rotate(-20)scale(0.1 -0.1)">
       <use xlink:href="#DejaVuSans-30"/>
       <use xlink:href="#DejaVuSans-2e" x="63.623047"/>
       <use xlink:href="#DejaVuSans-37" x="95.410156"/>
       <use xlink:href="#DejaVuSans-35" x="159.033203"/>
       <use xlink:href="#DejaVuSans-30" x="222.65625"/>
      </g>
     </g>
    </g>
    <g id="ytick_10">
     <g id="line2d_32">
      <g>
       <use xlink:href="#mfea607425f" x="62.306138" y="173.301424" style="stroke: #000000; stroke-width: 0.8"/>
      </g>
     </g>
     <g id="text_29">
      <!-- 0.775 -->
      <g transform="translate(27.693205 186.433796)rotate(-20)scale(0.1 -0.1)">
       <use xlink:href="#DejaVuSans-30"/>
       <use xlink:href="#DejaVuSans-2e" x="63.623047"/>
       <use xlink:href="#DejaVuSans-37" x="95.410156"/>
       <use xlink:href="#DejaVuSans-37" x="159.033203"/>
       <use xlink:href="#DejaVuSans-35" x="222.65625"/>
      </g>
     </g>
    </g>
    <g id="ytick_11">
     <g id="line2d_33">
      <g>
       <use xlink:href="#mfea607425f" x="62.306138" y="139.138478" style="stroke: #000000; stroke-width: 0.8"/>
      </g>
     </g>
     <g id="text_30">
      <!-- 0.800 -->
      <g transform="translate(27.693205 152.27085)rotate(-20)scale(0.1 -0.1)">
       <use xlink:href="#DejaVuSans-30"/>
       <use xlink:href="#DejaVuSans-2e" x="63.623047"/>
       <use xlink:href="#DejaVuSans-38" x="95.410156"/>
       <use xlink:href="#DejaVuSans-30" x="159.033203"/>
       <use xlink:href="#DejaVuSans-30" x="222.65625"/>
      </g>
     </g>
    </g>
    <g id="ytick_12">
     <g id="line2d_34">
      <g>
       <use xlink:href="#mfea607425f" x="62.306138" y="104.975532" style="stroke: #000000; stroke-width: 0.8"/>
      </g>
     </g>
     <g id="text_31">
      <!-- 0.825 -->
      <g transform="translate(27.693205 118.107905)rotate(-20)scale(0.1 -0.1)">
       <use xlink:href="#DejaVuSans-30"/>
       <use xlink:href="#DejaVuSans-2e" x="63.623047"/>
       <use xlink:href="#DejaVuSans-38" x="95.410156"/>
       <use xlink:href="#DejaVuSans-32" x="159.033203"/>
       <use xlink:href="#DejaVuSans-35" x="222.65625"/>
      </g>
     </g>
    </g>
    <g id="ytick_13">
     <g id="line2d_35">
      <g>
       <use xlink:href="#mfea607425f" x="62.306138" y="70.812587" style="stroke: #000000; stroke-width: 0.8"/>
      </g>
     </g>
     <g id="text_32">
      <!-- 0.850 -->
      <g transform="translate(27.693205 83.944959)rotate(-20)scale(0.1 -0.1)">
       <use xlink:href="#DejaVuSans-30"/>
       <use xlink:href="#DejaVuSans-2e" x="63.623047"/>
       <use xlink:href="#DejaVuSans-38" x="95.410156"/>
       <use xlink:href="#DejaVuSans-35" x="159.033203"/>
       <use xlink:href="#DejaVuSans-30" x="222.65625"/>
      </g>
     </g>
    </g>
    <g id="text_33">
     <!-- f1 -->
     <g transform="translate(19.014699 180.430605)rotate(-90)scale(0.1 -0.1)">
      <use xlink:href="#DejaVuSans-66"/>
      <use xlink:href="#DejaVuSans-31" x="35.205078"/>
     </g>
    </g>
   </g>
   <g id="line2d_36">
    <path d="M 112.229793 234.713777 
L 112.229793 246.667749 
" clip-path="url(#pa5fa69be26)" style="fill: none; stroke: #949494; stroke-width: 1.5; stroke-linecap: square"/>
   </g>
   <g id="line2d_37">
    <path d="M 112.229793 210.805834 
L 112.229793 198.851862 
" clip-path="url(#pa5fa69be26)" style="fill: none; stroke: #949494; stroke-width: 1.5; stroke-linecap: square"/>
   </g>
   <g id="line2d_38">
    <path d="M 92.260331 246.667749 
L 132.199255 246.667749 
" clip-path="url(#pa5fa69be26)" style="fill: none; stroke: #949494; stroke-width: 1.5; stroke-linecap: square"/>
   </g>
   <g id="line2d_39">
    <path d="M 92.260331 198.851862 
L 132.199255 198.851862 
" clip-path="url(#pa5fa69be26)" style="fill: none; stroke: #949494; stroke-width: 1.5; stroke-linecap: square"/>
   </g>
   <g id="line2d_40"/>
   <g id="line2d_41">
    <path d="M 212.077104 281.936517 
L 212.077104 289.926651 
" clip-path="url(#pa5fa69be26)" style="fill: none; stroke: #949494; stroke-width: 1.5; stroke-linecap: square"/>
   </g>
   <g id="line2d_42">
    <path d="M 212.077104 265.956249 
L 212.077104 257.966115 
" clip-path="url(#pa5fa69be26)" style="fill: none; stroke: #949494; stroke-width: 1.5; stroke-linecap: square"/>
   </g>
   <g id="line2d_43">
    <path d="M 192.107642 289.926651 
L 232.046566 289.926651 
" clip-path="url(#pa5fa69be26)" style="fill: none; stroke: #949494; stroke-width: 1.5; stroke-linecap: square"/>
   </g>
   <g id="line2d_44">
    <path d="M 192.107642 257.966115 
L 232.046566 257.966115 
" clip-path="url(#pa5fa69be26)" style="fill: none; stroke: #949494; stroke-width: 1.5; stroke-linecap: square"/>
   </g>
   <g id="line2d_45"/>
   <g id="line2d_46">
    <path d="M 311.924414 66.474435 
L 311.924414 68.281998 
" clip-path="url(#pa5fa69be26)" style="fill: none; stroke: #949494; stroke-width: 1.5; stroke-linecap: square"/>
   </g>
   <g id="line2d_47">
    <path d="M 311.924414 62.859309 
L 311.924414 61.051745 
" clip-path="url(#pa5fa69be26)" style="fill: none; stroke: #949494; stroke-width: 1.5; stroke-linecap: square"/>
   </g>
   <g id="line2d_48">
    <path d="M 291.954952 68.281998 
L 331.893876 68.281998 
" clip-path="url(#pa5fa69be26)" style="fill: none; stroke: #949494; stroke-width: 1.5; stroke-linecap: square"/>
   </g>
   <g id="line2d_49">
    <path d="M 291.954952 61.051745 
L 331.893876 61.051745 
" clip-path="url(#pa5fa69be26)" style="fill: none; stroke: #949494; stroke-width: 1.5; stroke-linecap: square"/>
   </g>
   <g id="line2d_50"/>
   <g id="line2d_51">
    <path d="M 72.290869 222.759806 
L 152.168717 222.759806 
" clip-path="url(#pa5fa69be26)" style="fill: none; stroke: #949494; stroke-width: 1.5; stroke-linecap: square"/>
   </g>
   <g id="line2d_52">
    <path d="M 172.13818 273.946383 
L 252.016028 273.946383 
" clip-path="url(#pa5fa69be26)" style="fill: none; stroke: #949494; stroke-width: 1.5; stroke-linecap: square"/>
   </g>
   <g id="line2d_53">
    <path d="M 271.98549 64.666872 
L 351.863338 64.666872 
" clip-path="url(#pa5fa69be26)" style="fill: none; stroke: #949494; stroke-width: 1.5; stroke-linecap: square"/>
   </g>
   <g id="patch_12">
    <path d="M 62.306138 301.370397 
L 62.306138 49.608 
" style="fill: none; stroke: #000000; stroke-width: 0.8; stroke-linejoin: miter; stroke-linecap: square"/>
   </g>
   <g id="patch_13">
    <path d="M 361.848069 301.370397 
L 361.848069 49.608 
" style="fill: none; stroke: #000000; stroke-width: 0.8; stroke-linejoin: miter; stroke-linecap: square"/>
   </g>
   <g id="patch_14">
    <path d="M 62.306138 301.370397 
L 361.848069 301.370397 
" style="fill: none; stroke: #000000; stroke-width: 0.8; stroke-linejoin: miter; stroke-linecap: square"/>
   </g>
   <g id="patch_15">
    <path d="M 62.306138 49.608 
L 361.848069 49.608 
" style="fill: none; stroke: #000000; stroke-width: 0.8; stroke-linejoin: miter; stroke-linecap: square"/>
   </g>
   <g id="PathCollection_3">
    <defs>
     <path id="C0_0_87176e796c" d="M 0 5 
C 1.326016 5 2.597899 4.473168 3.535534 3.535534 
C 4.473168 2.597899 5 1.326016 5 -0 
C 5 -1.326016 4.473168 -2.597899 3.535534 -3.535534 
C 2.597899 -4.473168 1.326016 -5 0 -5 
C -1.326016 -5 -2.597899 -4.473168 -3.535534 -3.535534 
C -4.473168 -2.597899 -5 -1.326016 -5 0 
C -5 1.326016 -4.473168 2.597899 -3.535534 3.535534 
C -2.597899 4.473168 -1.326016 5 0 5 
z
"/>
    </defs>
    <g clip-path="url(#pa5fa69be26)">
     <use xlink:href="#C0_0_87176e796c" x="114.839292" y="198.851862" style="fill: #1f77b4"/>
    </g>
    <g clip-path="url(#pa5fa69be26)">
     <use xlink:href="#C0_0_87176e796c" x="103.89223" y="246.667749" style="fill: #ff7f0e"/>
    </g>
   </g>
   <g id="PathCollection_4">
    <defs>
     <path id="C1_0_58384c3c92" d="M 0 5 
C 1.326016 5 2.597899 4.473168 3.535534 3.535534 
C 4.473168 2.597899 5 1.326016 5 -0 
C 5 -1.326016 4.473168 -2.597899 3.535534 -3.535534 
C 2.597899 -4.473168 1.326016 -5 0 -5 
C -1.326016 -5 -2.597899 -4.473168 -3.535534 -3.535534 
C -4.473168 -2.597899 -5 -1.326016 -5 0 
C -5 1.326016 -4.473168 2.597899 -3.535534 3.535534 
C -2.597899 4.473168 -1.326016 5 0 5 
z
"/>
    </defs>
    <g clip-path="url(#pa5fa69be26)">
     <use xlink:href="#C1_0_58384c3c92" x="213.708507" y="289.926651" style="fill: #1f77b4"/>
    </g>
    <g clip-path="url(#pa5fa69be26)">
     <use xlink:href="#C1_0_58384c3c92" x="202.57261" y="257.966115" style="fill: #ff7f0e"/>
    </g>
   </g>
   <g id="PathCollection_5">
    <defs>
     <path id="C2_0_a037bf0b2e" d="M 0 5 
C 1.326016 5 2.597899 4.473168 3.535534 3.535534 
C 4.473168 2.597899 5 1.326016 5 -0 
C 5 -1.326016 4.473168 -2.597899 3.535534 -3.535534 
C 2.597899 -4.473168 1.326016 -5 0 -5 
C -1.326016 -5 -2.597899 -4.473168 -3.535534 -3.535534 
C -4.473168 -2.597899 -5 -1.326016 -5 0 
C -5 1.326016 -4.473168 2.597899 -3.535534 3.535534 
C -2.597899 4.473168 -1.326016 5 0 5 
z
"/>
    </defs>
    <g clip-path="url(#pa5fa69be26)">
     <use xlink:href="#C2_0_a037bf0b2e" x="319.000232" y="61.051745" style="fill: #1f77b4"/>
    </g>
    <g clip-path="url(#pa5fa69be26)">
     <use xlink:href="#C2_0_a037bf0b2e" x="319.744012" y="68.281998" style="fill: #ff7f0e"/>
    </g>
   </g>
   <g id="text_34">
    <!-- A -->
    <g transform="translate(32.351945 29.558139)scale(0.2 -0.2)">
     <defs>
      <path id="DejaVuSans-41" d="M 2188 4044 
L 1331 1722 
L 3047 1722 
L 2188 4044 
z
M 1831 4666 
L 2547 4666 
L 4325 0 
L 3669 0 
L 3244 1197 
L 1141 1197 
L 716 0 
L 50 0 
L 1831 4666 
z
" transform="scale(0.015625)"/>
     </defs>
     <use xlink:href="#DejaVuSans-41"/>
    </g>
   </g>
   <g id="legend_2">
    <g id="patch_16">
     <path d="M 69.306138 101.9205 
L 126.413951 101.9205 
Q 128.413951 101.9205 128.413951 99.9205 
L 128.413951 56.608 
Q 128.413951 54.608 126.413951 54.608 
L 69.306138 54.608 
Q 67.306138 54.608 67.306138 56.608 
L 67.306138 99.9205 
Q 67.306138 101.9205 69.306138 101.9205 
z
" style="fill: #ffffff; opacity: 0.8; stroke: #cccccc; stroke-linejoin: miter"/>
    </g>
    <g id="text_35">
     <!-- hla_used -->
     <g transform="translate(75.713951 66.206437)scale(0.1 -0.1)">
      <defs>
       <path id="DejaVuSans-64" d="M 2906 2969 
L 2906 4863 
L 3481 4863 
L 3481 0 
L 2906 0 
L 2906 525 
Q 2725 213 2448 61 
Q 2172 -91 1784 -91 
Q 1150 -91 751 415 
Q 353 922 353 1747 
Q 353 2572 751 3078 
Q 1150 3584 1784 3584 
Q 2172 3584 2448 3432 
Q 2725 3281 2906 2969 
z
M 947 1747 
Q 947 1113 1208 752 
Q 1469 391 1925 391 
Q 2381 391 2643 752 
Q 2906 1113 2906 1747 
Q 2906 2381 2643 2742 
Q 2381 3103 1925 3103 
Q 1469 3103 1208 2742 
Q 947 2381 947 1747 
z
" transform="scale(0.015625)"/>
      </defs>
      <use xlink:href="#DejaVuSans-68"/>
      <use xlink:href="#DejaVuSans-6c" x="63.378906"/>
      <use xlink:href="#DejaVuSans-61" x="91.162109"/>
      <use xlink:href="#DejaVuSans-5f" x="152.441406"/>
      <use xlink:href="#DejaVuSans-75" x="202.441406"/>
      <use xlink:href="#DejaVuSans-73" x="265.820312"/>
      <use xlink:href="#DejaVuSans-65" x="317.919922"/>
      <use xlink:href="#DejaVuSans-64" x="379.443359"/>
     </g>
    </g>
    <g id="PathCollection_6">
     <defs>
      <path id="m6434705fd5" d="M 0 3 
C 0.795609 3 1.55874 2.683901 2.12132 2.12132 
C 2.683901 1.55874 3 0.795609 3 0 
C 3 -0.795609 2.683901 -1.55874 2.12132 -2.12132 
C 1.55874 -2.683901 0.795609 -3 0 -3 
C -0.795609 -3 -1.55874 -2.683901 -2.12132 -2.12132 
C -2.683901 -1.55874 -3 -0.795609 -3 0 
C -3 0.795609 -2.683901 1.55874 -2.12132 2.12132 
C -1.55874 2.683901 -0.795609 3 0 3 
z
" style="stroke: #1f77b4"/>
     </defs>
     <g>
      <use xlink:href="#m6434705fd5" x="81.306138" y="78.537688" style="fill: #1f77b4; stroke: #1f77b4"/>
     </g>
    </g>
    <g id="text_36">
     <!-- False -->
     <g transform="translate(99.306138 81.162688)scale(0.1 -0.1)">
      <use xlink:href="#DejaVuSans-46"/>
      <use xlink:href="#DejaVuSans-61" x="48.394531"/>
      <use xlink:href="#DejaVuSans-6c" x="109.673828"/>
      <use xlink:href="#DejaVuSans-73" x="137.457031"/>
      <use xlink:href="#DejaVuSans-65" x="189.556641"/>
     </g>
    </g>
    <g id="PathCollection_7">
     <defs>
      <path id="m7a72637427" d="M 0 3 
C 0.795609 3 1.55874 2.683901 2.12132 2.12132 
C 2.683901 1.55874 3 0.795609 3 0 
C 3 -0.795609 2.683901 -1.55874 2.12132 -2.12132 
C 1.55874 -2.683901 0.795609 -3 0 -3 
C -0.795609 -3 -1.55874 -2.683901 -2.12132 -2.12132 
C -2.683901 -1.55874 -3 -0.795609 -3 0 
C -3 0.795609 -2.683901 1.55874 -2.12132 2.12132 
C -1.55874 2.683901 -0.795609 3 0 3 
z
" style="stroke: #ff7f0e"/>
     </defs>
     <g>
      <use xlink:href="#m7a72637427" x="81.306138" y="93.215813" style="fill: #ff7f0e; stroke: #ff7f0e"/>
     </g>
    </g>
    <g id="text_37">
     <!-- True -->
     <g transform="translate(99.306138 95.840813)scale(0.1 -0.1)">
      <use xlink:href="#DejaVuSans-54"/>
      <use xlink:href="#DejaVuSans-72" x="46.333984"/>
      <use xlink:href="#DejaVuSans-75" x="87.447266"/>
      <use xlink:href="#DejaVuSans-65" x="150.826172"/>
     </g>
    </g>
   </g>
  </g>
 </g>
 <defs>
  <clipPath id="p99ce69368c">
   <rect x="409.658069" y="49.608" width="299.541931" height="251.762397"/>
  </clipPath>
  <clipPath id="pa5fa69be26">
   <rect x="62.306138" y="49.608" width="299.541931" height="251.762397"/>
  </clipPath>
 </defs>
</svg>
