<?xml version="1.0" encoding="utf-8" standalone="no"?>
<!DOCTYPE svg PUBLIC "-//W3C//DTD SVG 1.1//EN"
  "http://www.w3.org/Graphics/SVG/1.1/DTD/svg11.dtd">
<svg xmlns:xlink="http://www.w3.org/1999/xlink" width="720pt" height="360pt" viewBox="0 0 720 360" xmlns="http://www.w3.org/2000/svg" version="1.1">
 <metadata>
  <rdf:RDF xmlns:dc="http://purl.org/dc/elements/1.1/" xmlns:cc="http://creativecommons.org/ns#" xmlns:rdf="http://www.w3.org/1999/02/22-rdf-syntax-ns#">
   <cc:Work>
    <dc:type rdf:resource="http://purl.org/dc/dcmitype/StillImage"/>
    <dc:date>2023-09-11T14:07:33.251950</dc:date>
    <dc:format>image/svg+xml</dc:format>
    <dc:creator>
     <cc:Agent>
      <dc:title>Matplotlib v3.5.1, https://matplotlib.org/</dc:title>
     </cc:Agent>
    </dc:creator>
   </cc:Work>
  </rdf:RDF>
 </metadata>
 <defs>
  <style type="text/css">*{stroke-linejoin: round; stroke-linecap: butt}</style>
 </defs>
 <g id="figure_1">
  <g id="patch_1">
   <path d="M 0 360 
L 720 360 
L 720 0 
L 0 0 
z
" style="fill: #ffffff"/>
  </g>
  <g id="axes_1">
   <g id="patch_2">
    <path d="M 47.81 318.04 
L 354.6 318.04 
L 354.6 49.608 
L 47.81 49.608 
z
" style="fill: #ffffff"/>
   </g>
   <g id="matplotlib.axis_1">
    <g id="xtick_1">
     <g id="line2d_1">
      <defs>
       <path id="me1dd921b15" d="M 0 0 
L 0 3.5 
" style="stroke: #000000; stroke-width: 0.8"/>
      </defs>
      <g>
       <use xlink:href="#me1dd921b15" x="61.755" y="318.04" style="stroke: #000000; stroke-width: 0.8"/>
      </g>
     </g>
     <g id="text_1">
      <!-- 0.0 -->
      <g transform="translate(53.803438 332.638438)scale(0.1 -0.1)">
       <defs>
        <path id="DejaVuSans-30" d="M 2034 4250 
Q 1547 4250 1301 3770 
Q 1056 3291 1056 2328 
Q 1056 1369 1301 889 
Q 1547 409 2034 409 
Q 2525 409 2770 889 
Q 3016 1369 3016 2328 
Q 3016 3291 2770 3770 
Q 2525 4250 2034 4250 
z
M 2034 4750 
Q 2819 4750 3233 4129 
Q 3647 3509 3647 2328 
Q 3647 1150 3233 529 
Q 2819 -91 2034 -91 
Q 1250 -91 836 529 
Q 422 1150 422 2328 
Q 422 3509 836 4129 
Q 1250 4750 2034 4750 
z
" transform="scale(0.015625)"/>
        <path id="DejaVuSans-2e" d="M 684 794 
L 1344 794 
L 1344 0 
L 684 0 
L 684 794 
z
" transform="scale(0.015625)"/>
       </defs>
       <use xlink:href="#DejaVuSans-30"/>
       <use xlink:href="#DejaVuSans-2e" x="63.623047"/>
       <use xlink:href="#DejaVuSans-30" x="95.410156"/>
      </g>
     </g>
    </g>
    <g id="xtick_2">
     <g id="line2d_2">
      <g>
       <use xlink:href="#me1dd921b15" x="117.535" y="318.04" style="stroke: #000000; stroke-width: 0.8"/>
      </g>
     </g>
     <g id="text_2">
      <!-- 0.2 -->
      <g transform="translate(109.583438 332.638438)scale(0.1 -0.1)">
       <defs>
        <path id="DejaVuSans-32" d="M 1228 531 
L 3431 531 
L 3431 0 
L 469 0 
L 469 531 
Q 828 903 1448 1529 
Q 2069 2156 2228 2338 
Q 2531 2678 2651 2914 
Q 2772 3150 2772 3378 
Q 2772 3750 2511 3984 
Q 2250 4219 1831 4219 
Q 1534 4219 1204 4116 
Q 875 4013 500 3803 
L 500 4441 
Q 881 4594 1212 4672 
Q 1544 4750 1819 4750 
Q 2544 4750 2975 4387 
Q 3406 4025 3406 3419 
Q 3406 3131 3298 2873 
Q 3191 2616 2906 2266 
Q 2828 2175 2409 1742 
Q 1991 1309 1228 531 
z
" transform="scale(0.015625)"/>
       </defs>
       <use xlink:href="#DejaVuSans-30"/>
       <use xlink:href="#DejaVuSans-2e" x="63.623047"/>
       <use xlink:href="#DejaVuSans-32" x="95.410156"/>
      </g>
     </g>
    </g>
    <g id="xtick_3">
     <g id="line2d_3">
      <g>
       <use xlink:href="#me1dd921b15" x="173.315" y="318.04" style="stroke: #000000; stroke-width: 0.8"/>
      </g>
     </g>
     <g id="text_3">
      <!-- 0.4 -->
      <g transform="translate(165.363438 332.638438)scale(0.1 -0.1)">
       <defs>
        <path id="DejaVuSans-34" d="M 2419 4116 
L 825 1625 
L 2419 1625 
L 2419 4116 
z
M 2253 4666 
L 3047 4666 
L 3047 1625 
L 3713 1625 
L 3713 1100 
L 3047 1100 
L 3047 0 
L 2419 0 
L 2419 1100 
L 313 1100 
L 313 1709 
L 2253 4666 
z
" transform="scale(0.015625)"/>
       </defs>
       <use xlink:href="#DejaVuSans-30"/>
       <use xlink:href="#DejaVuSans-2e" x="63.623047"/>
       <use xlink:href="#DejaVuSans-34" x="95.410156"/>
      </g>
     </g>
    </g>
    <g id="xtick_4">
     <g id="line2d_4">
      <g>
       <use xlink:href="#me1dd921b15" x="229.095" y="318.04" style="stroke: #000000; stroke-width: 0.8"/>
      </g>
     </g>
     <g id="text_4">
      <!-- 0.6 -->
      <g transform="translate(221.143438 332.638438)scale(0.1 -0.1)">
       <defs>
        <path id="DejaVuSans-36" d="M 2113 2584 
Q 1688 2584 1439 2293 
Q 1191 2003 1191 1497 
Q 1191 994 1439 701 
Q 1688 409 2113 409 
Q 2538 409 2786 701 
Q 3034 994 3034 1497 
Q 3034 2003 2786 2293 
Q 2538 2584 2113 2584 
z
M 3366 4563 
L 3366 3988 
Q 3128 4100 2886 4159 
Q 2644 4219 2406 4219 
Q 1781 4219 1451 3797 
Q 1122 3375 1075 2522 
Q 1259 2794 1537 2939 
Q 1816 3084 2150 3084 
Q 2853 3084 3261 2657 
Q 3669 2231 3669 1497 
Q 3669 778 3244 343 
Q 2819 -91 2113 -91 
Q 1303 -91 875 529 
Q 447 1150 447 2328 
Q 447 3434 972 4092 
Q 1497 4750 2381 4750 
Q 2619 4750 2861 4703 
Q 3103 4656 3366 4563 
z
" transform="scale(0.015625)"/>
       </defs>
       <use xlink:href="#DejaVuSans-30"/>
       <use xlink:href="#DejaVuSans-2e" x="63.623047"/>
       <use xlink:href="#DejaVuSans-36" x="95.410156"/>
      </g>
     </g>
    </g>
    <g id="xtick_5">
     <g id="line2d_5">
      <g>
       <use xlink:href="#me1dd921b15" x="284.875" y="318.04" style="stroke: #000000; stroke-width: 0.8"/>
      </g>
     </g>
     <g id="text_5">
      <!-- 0.8 -->
      <g transform="translate(276.923438 332.638438)scale(0.1 -0.1)">
       <defs>
        <path id="DejaVuSans-38" d="M 2034 2216 
Q 1584 2216 1326 1975 
Q 1069 1734 1069 1313 
Q 1069 891 1326 650 
Q 1584 409 2034 409 
Q 2484 409 2743 651 
Q 3003 894 3003 1313 
Q 3003 1734 2745 1975 
Q 2488 2216 2034 2216 
z
M 1403 2484 
Q 997 2584 770 2862 
Q 544 3141 544 3541 
Q 544 4100 942 4425 
Q 1341 4750 2034 4750 
Q 2731 4750 3128 4425 
Q 3525 4100 3525 3541 
Q 3525 3141 3298 2862 
Q 3072 2584 2669 2484 
Q 3125 2378 3379 2068 
Q 3634 1759 3634 1313 
Q 3634 634 3220 271 
Q 2806 -91 2034 -91 
Q 1263 -91 848 271 
Q 434 634 434 1313 
Q 434 1759 690 2068 
Q 947 2378 1403 2484 
z
M 1172 3481 
Q 1172 3119 1398 2916 
Q 1625 2713 2034 2713 
Q 2441 2713 2670 2916 
Q 2900 3119 2900 3481 
Q 2900 3844 2670 4047 
Q 2441 4250 2034 4250 
Q 1625 4250 1398 4047 
Q 1172 3844 1172 3481 
z
" transform="scale(0.015625)"/>
       </defs>
       <use xlink:href="#DejaVuSans-30"/>
       <use xlink:href="#DejaVuSans-2e" x="63.623047"/>
       <use xlink:href="#DejaVuSans-38" x="95.410156"/>
      </g>
     </g>
    </g>
    <g id="xtick_6">
     <g id="line2d_6">
      <g>
       <use xlink:href="#me1dd921b15" x="340.655" y="318.04" style="stroke: #000000; stroke-width: 0.8"/>
      </g>
     </g>
     <g id="text_6">
      <!-- 1.0 -->
      <g transform="translate(332.703438 332.638438)scale(0.1 -0.1)">
       <defs>
        <path id="DejaVuSans-31" d="M 794 531 
L 1825 531 
L 1825 4091 
L 703 3866 
L 703 4441 
L 1819 4666 
L 2450 4666 
L 2450 531 
L 3481 531 
L 3481 0 
L 794 0 
L 794 531 
z
" transform="scale(0.015625)"/>
       </defs>
       <use xlink:href="#DejaVuSans-31"/>
       <use xlink:href="#DejaVuSans-2e" x="63.623047"/>
       <use xlink:href="#DejaVuSans-30" x="95.410156"/>
      </g>
     </g>
    </g>
    <g id="text_7">
     <!-- False Positive Rate -->
     <g transform="translate(154.738594 346.316563)scale(0.1 -0.1)">
      <defs>
       <path id="DejaVuSans-46" d="M 628 4666 
L 3309 4666 
L 3309 4134 
L 1259 4134 
L 1259 2759 
L 3109 2759 
L 3109 2228 
L 1259 2228 
L 1259 0 
L 628 0 
L 628 4666 
z
" transform="scale(0.015625)"/>
       <path id="DejaVuSans-61" d="M 2194 1759 
Q 1497 1759 1228 1600 
Q 959 1441 959 1056 
Q 959 750 1161 570 
Q 1363 391 1709 391 
Q 2188 391 2477 730 
Q 2766 1069 2766 1631 
L 2766 1759 
L 2194 1759 
z
M 3341 1997 
L 3341 0 
L 2766 0 
L 2766 531 
Q 2569 213 2275 61 
Q 1981 -91 1556 -91 
Q 1019 -91 701 211 
Q 384 513 384 1019 
Q 384 1609 779 1909 
Q 1175 2209 1959 2209 
L 2766 2209 
L 2766 2266 
Q 2766 2663 2505 2880 
Q 2244 3097 1772 3097 
Q 1472 3097 1187 3025 
Q 903 2953 641 2809 
L 641 3341 
Q 956 3463 1253 3523 
Q 1550 3584 1831 3584 
Q 2591 3584 2966 3190 
Q 3341 2797 3341 1997 
z
" transform="scale(0.015625)"/>
       <path id="DejaVuSans-6c" d="M 603 4863 
L 1178 4863 
L 1178 0 
L 603 0 
L 603 4863 
z
" transform="scale(0.015625)"/>
       <path id="DejaVuSans-73" d="M 2834 3397 
L 2834 2853 
Q 2591 2978 2328 3040 
Q 2066 3103 1784 3103 
Q 1356 3103 1142 2972 
Q 928 2841 928 2578 
Q 928 2378 1081 2264 
Q 1234 2150 1697 2047 
L 1894 2003 
Q 2506 1872 2764 1633 
Q 3022 1394 3022 966 
Q 3022 478 2636 193 
Q 2250 -91 1575 -91 
Q 1294 -91 989 -36 
Q 684 19 347 128 
L 347 722 
Q 666 556 975 473 
Q 1284 391 1588 391 
Q 1994 391 2212 530 
Q 2431 669 2431 922 
Q 2431 1156 2273 1281 
Q 2116 1406 1581 1522 
L 1381 1569 
Q 847 1681 609 1914 
Q 372 2147 372 2553 
Q 372 3047 722 3315 
Q 1072 3584 1716 3584 
Q 2034 3584 2315 3537 
Q 2597 3491 2834 3397 
z
" transform="scale(0.015625)"/>
       <path id="DejaVuSans-65" d="M 3597 1894 
L 3597 1613 
L 953 1613 
Q 991 1019 1311 708 
Q 1631 397 2203 397 
Q 2534 397 2845 478 
Q 3156 559 3463 722 
L 3463 178 
Q 3153 47 2828 -22 
Q 2503 -91 2169 -91 
Q 1331 -91 842 396 
Q 353 884 353 1716 
Q 353 2575 817 3079 
Q 1281 3584 2069 3584 
Q 2775 3584 3186 3129 
Q 3597 2675 3597 1894 
z
M 3022 2063 
Q 3016 2534 2758 2815 
Q 2500 3097 2075 3097 
Q 1594 3097 1305 2825 
Q 1016 2553 972 2059 
L 3022 2063 
z
" transform="scale(0.015625)"/>
       <path id="DejaVuSans-20" transform="scale(0.015625)"/>
       <path id="DejaVuSans-50" d="M 1259 4147 
L 1259 2394 
L 2053 2394 
Q 2494 2394 2734 2622 
Q 2975 2850 2975 3272 
Q 2975 3691 2734 3919 
Q 2494 4147 2053 4147 
L 1259 4147 
z
M 628 4666 
L 2053 4666 
Q 2838 4666 3239 4311 
Q 3641 3956 3641 3272 
Q 3641 2581 3239 2228 
Q 2838 1875 2053 1875 
L 1259 1875 
L 1259 0 
L 628 0 
L 628 4666 
z
" transform="scale(0.015625)"/>
       <path id="DejaVuSans-6f" d="M 1959 3097 
Q 1497 3097 1228 2736 
Q 959 2375 959 1747 
Q 959 1119 1226 758 
Q 1494 397 1959 397 
Q 2419 397 2687 759 
Q 2956 1122 2956 1747 
Q 2956 2369 2687 2733 
Q 2419 3097 1959 3097 
z
M 1959 3584 
Q 2709 3584 3137 3096 
Q 3566 2609 3566 1747 
Q 3566 888 3137 398 
Q 2709 -91 1959 -91 
Q 1206 -91 779 398 
Q 353 888 353 1747 
Q 353 2609 779 3096 
Q 1206 3584 1959 3584 
z
" transform="scale(0.015625)"/>
       <path id="DejaVuSans-69" d="M 603 3500 
L 1178 3500 
L 1178 0 
L 603 0 
L 603 3500 
z
M 603 4863 
L 1178 4863 
L 1178 4134 
L 603 4134 
L 603 4863 
z
" transform="scale(0.015625)"/>
       <path id="DejaVuSans-74" d="M 1172 4494 
L 1172 3500 
L 2356 3500 
L 2356 3053 
L 1172 3053 
L 1172 1153 
Q 1172 725 1289 603 
Q 1406 481 1766 481 
L 2356 481 
L 2356 0 
L 1766 0 
Q 1100 0 847 248 
Q 594 497 594 1153 
L 594 3053 
L 172 3053 
L 172 3500 
L 594 3500 
L 594 4494 
L 1172 4494 
z
" transform="scale(0.015625)"/>
       <path id="DejaVuSans-76" d="M 191 3500 
L 800 3500 
L 1894 563 
L 2988 3500 
L 3597 3500 
L 2284 0 
L 1503 0 
L 191 3500 
z
" transform="scale(0.015625)"/>
       <path id="DejaVuSans-52" d="M 2841 2188 
Q 3044 2119 3236 1894 
Q 3428 1669 3622 1275 
L 4263 0 
L 3584 0 
L 2988 1197 
Q 2756 1666 2539 1819 
Q 2322 1972 1947 1972 
L 1259 1972 
L 1259 0 
L 628 0 
L 628 4666 
L 2053 4666 
Q 2853 4666 3247 4331 
Q 3641 3997 3641 3322 
Q 3641 2881 3436 2590 
Q 3231 2300 2841 2188 
z
M 1259 4147 
L 1259 2491 
L 2053 2491 
Q 2509 2491 2742 2702 
Q 2975 2913 2975 3322 
Q 2975 3731 2742 3939 
Q 2509 4147 2053 4147 
L 1259 4147 
z
" transform="scale(0.015625)"/>
      </defs>
      <use xlink:href="#DejaVuSans-46"/>
      <use xlink:href="#DejaVuSans-61" x="48.394531"/>
      <use xlink:href="#DejaVuSans-6c" x="109.673828"/>
      <use xlink:href="#DejaVuSans-73" x="137.457031"/>
      <use xlink:href="#DejaVuSans-65" x="189.556641"/>
      <use xlink:href="#DejaVuSans-20" x="251.080078"/>
      <use xlink:href="#DejaVuSans-50" x="282.867188"/>
      <use xlink:href="#DejaVuSans-6f" x="339.544922"/>
      <use xlink:href="#DejaVuSans-73" x="400.726562"/>
      <use xlink:href="#DejaVuSans-69" x="452.826172"/>
      <use xlink:href="#DejaVuSans-74" x="480.609375"/>
      <use xlink:href="#DejaVuSans-69" x="519.818359"/>
      <use xlink:href="#DejaVuSans-76" x="547.601562"/>
      <use xlink:href="#DejaVuSans-65" x="606.78125"/>
      <use xlink:href="#DejaVuSans-20" x="668.304688"/>
      <use xlink:href="#DejaVuSans-52" x="700.091797"/>
      <use xlink:href="#DejaVuSans-61" x="767.324219"/>
      <use xlink:href="#DejaVuSans-74" x="828.603516"/>
      <use xlink:href="#DejaVuSans-65" x="867.8125"/>
     </g>
    </g>
   </g>
   <g id="matplotlib.axis_2">
    <g id="ytick_1">
     <g id="line2d_7">
      <defs>
       <path id="mb819892f12" d="M 0 0 
L -3.5 0 
" style="stroke: #000000; stroke-width: 0.8"/>
      </defs>
      <g>
       <use xlink:href="#mb819892f12" x="47.81" y="305.838545" style="stroke: #000000; stroke-width: 0.8"/>
      </g>
     </g>
     <g id="text_8">
      <!-- 0.0 -->
      <g transform="translate(24.906875 309.637764)scale(0.1 -0.1)">
       <use xlink:href="#DejaVuSans-30"/>
       <use xlink:href="#DejaVuSans-2e" x="63.623047"/>
       <use xlink:href="#DejaVuSans-30" x="95.410156"/>
      </g>
     </g>
    </g>
    <g id="ytick_2">
     <g id="line2d_8">
      <g>
       <use xlink:href="#mb819892f12" x="47.81" y="257.032727" style="stroke: #000000; stroke-width: 0.8"/>
      </g>
     </g>
     <g id="text_9">
      <!-- 0.2 -->
      <g transform="translate(24.906875 260.831946)scale(0.1 -0.1)">
       <use xlink:href="#DejaVuSans-30"/>
       <use xlink:href="#DejaVuSans-2e" x="63.623047"/>
       <use xlink:href="#DejaVuSans-32" x="95.410156"/>
      </g>
     </g>
    </g>
    <g id="ytick_3">
     <g id="line2d_9">
      <g>
       <use xlink:href="#mb819892f12" x="47.81" y="208.226909" style="stroke: #000000; stroke-width: 0.8"/>
      </g>
     </g>
     <g id="text_10">
      <!-- 0.4 -->
      <g transform="translate(24.906875 212.026128)scale(0.1 -0.1)">
       <use xlink:href="#DejaVuSans-30"/>
       <use xlink:href="#DejaVuSans-2e" x="63.623047"/>
       <use xlink:href="#DejaVuSans-34" x="95.410156"/>
      </g>
     </g>
    </g>
    <g id="ytick_4">
     <g id="line2d_10">
      <g>
       <use xlink:href="#mb819892f12" x="47.81" y="159.421091" style="stroke: #000000; stroke-width: 0.8"/>
      </g>
     </g>
     <g id="text_11">
      <!-- 0.6 -->
      <g transform="translate(24.906875 163.22031)scale(0.1 -0.1)">
       <use xlink:href="#DejaVuSans-30"/>
       <use xlink:href="#DejaVuSans-2e" x="63.623047"/>
       <use xlink:href="#DejaVuSans-36" x="95.410156"/>
      </g>
     </g>
    </g>
    <g id="ytick_5">
     <g id="line2d_11">
      <g>
       <use xlink:href="#mb819892f12" x="47.81" y="110.615273" style="stroke: #000000; stroke-width: 0.8"/>
      </g>
     </g>
     <g id="text_12">
      <!-- 0.8 -->
      <g transform="translate(24.906875 114.414491)scale(0.1 -0.1)">
       <use xlink:href="#DejaVuSans-30"/>
       <use xlink:href="#DejaVuSans-2e" x="63.623047"/>
       <use xlink:href="#DejaVuSans-38" x="95.410156"/>
      </g>
     </g>
    </g>
    <g id="ytick_6">
     <g id="line2d_12">
      <g>
       <use xlink:href="#mb819892f12" x="47.81" y="61.809455" style="stroke: #000000; stroke-width: 0.8"/>
      </g>
     </g>
     <g id="text_13">
      <!-- 1.0 -->
      <g transform="translate(24.906875 65.608673)scale(0.1 -0.1)">
       <use xlink:href="#DejaVuSans-31"/>
       <use xlink:href="#DejaVuSans-2e" x="63.623047"/>
       <use xlink:href="#DejaVuSans-30" x="95.410156"/>
      </g>
     </g>
    </g>
    <g id="text_14">
     <!-- True Positive Rate -->
     <g transform="translate(18.827187 228.353688)rotate(-90)scale(0.1 -0.1)">
      <defs>
       <path id="DejaVuSans-54" d="M -19 4666 
L 3928 4666 
L 3928 4134 
L 2272 4134 
L 2272 0 
L 1638 0 
L 1638 4134 
L -19 4134 
L -19 4666 
z
" transform="scale(0.015625)"/>
       <path id="DejaVuSans-72" d="M 2631 2963 
Q 2534 3019 2420 3045 
Q 2306 3072 2169 3072 
Q 1681 3072 1420 2755 
Q 1159 2438 1159 1844 
L 1159 0 
L 581 0 
L 581 3500 
L 1159 3500 
L 1159 2956 
Q 1341 3275 1631 3429 
Q 1922 3584 2338 3584 
Q 2397 3584 2469 3576 
Q 2541 3569 2628 3553 
L 2631 2963 
z
" transform="scale(0.015625)"/>
       <path id="DejaVuSans-75" d="M 544 1381 
L 544 3500 
L 1119 3500 
L 1119 1403 
Q 1119 906 1312 657 
Q 1506 409 1894 409 
Q 2359 409 2629 706 
Q 2900 1003 2900 1516 
L 2900 3500 
L 3475 3500 
L 3475 0 
L 2900 0 
L 2900 538 
Q 2691 219 2414 64 
Q 2138 -91 1772 -91 
Q 1169 -91 856 284 
Q 544 659 544 1381 
z
M 1991 3584 
L 1991 3584 
z
" transform="scale(0.015625)"/>
      </defs>
      <use xlink:href="#DejaVuSans-54"/>
      <use xlink:href="#DejaVuSans-72" x="46.333984"/>
      <use xlink:href="#DejaVuSans-75" x="87.447266"/>
      <use xlink:href="#DejaVuSans-65" x="150.826172"/>
      <use xlink:href="#DejaVuSans-20" x="212.349609"/>
      <use xlink:href="#DejaVuSans-50" x="244.136719"/>
      <use xlink:href="#DejaVuSans-6f" x="300.814453"/>
      <use xlink:href="#DejaVuSans-73" x="361.996094"/>
      <use xlink:href="#DejaVuSans-69" x="414.095703"/>
      <use xlink:href="#DejaVuSans-74" x="441.878906"/>
      <use xlink:href="#DejaVuSans-69" x="481.087891"/>
      <use xlink:href="#DejaVuSans-76" x="508.871094"/>
      <use xlink:href="#DejaVuSans-65" x="568.050781"/>
      <use xlink:href="#DejaVuSans-20" x="629.574219"/>
      <use xlink:href="#DejaVuSans-52" x="661.361328"/>
      <use xlink:href="#DejaVuSans-61" x="728.59375"/>
      <use xlink:href="#DejaVuSans-74" x="789.873047"/>
      <use xlink:href="#DejaVuSans-65" x="829.082031"/>
     </g>
    </g>
   </g>
   <g id="line2d_13">
    <path d="M 61.755 305.838545 
L 61.755 302.709967 
L 61.755 299.581389 
L 69.839058 299.581389 
L 69.839058 293.324233 
L 73.881087 293.324233 
L 73.881087 274.552765 
L 81.965145 274.552765 
L 81.965145 268.295608 
L 86.007174 268.295608 
L 86.007174 265.16703 
L 98.133261 265.16703 
L 98.133261 262.038452 
L 102.17529 262.038452 
L 102.17529 255.781296 
L 110.259348 255.781296 
L 110.259348 246.395562 
L 114.301377 246.395562 
L 114.301377 243.266984 
L 122.385435 243.266984 
L 122.385435 237.009828 
L 134.511522 237.009828 
L 134.511522 233.881249 
L 146.637609 233.881249 
L 146.637609 230.752671 
L 150.679638 230.752671 
L 150.679638 215.109781 
L 154.721667 215.109781 
L 154.721667 211.981203 
L 158.763696 211.981203 
L 158.763696 196.338312 
L 178.973841 196.338312 
L 178.973841 190.081156 
L 191.099928 190.081156 
L 191.099928 183.824 
L 199.183986 183.824 
L 199.183986 180.695422 
L 207.268043 180.695422 
L 207.268043 177.566844 
L 211.310072 177.566844 
L 211.310072 171.309688 
L 219.39413 171.309688 
L 219.39413 165.052531 
L 223.436159 165.052531 
L 223.436159 146.281063 
L 231.520217 146.281063 
L 231.520217 143.152485 
L 243.646304 143.152485 
L 243.646304 140.023907 
L 247.688333 140.023907 
L 247.688333 133.766751 
L 255.772391 133.766751 
L 255.772391 127.509594 
L 263.856449 127.509594 
L 263.856449 124.381016 
L 267.898478 124.381016 
L 267.898478 121.252438 
L 275.982536 121.252438 
L 275.982536 114.995282 
L 280.024565 114.995282 
L 280.024565 108.738126 
L 284.066594 108.738126 
L 284.066594 105.609548 
L 292.150652 105.609548 
L 292.150652 102.48097 
L 296.192681 102.48097 
L 296.192681 99.352392 
L 300.23471 99.352392 
L 300.23471 96.223814 
L 304.276739 96.223814 
L 304.276739 80.580923 
L 308.318768 80.580923 
L 308.318768 77.452345 
L 312.360797 77.452345 
L 312.360797 71.195189 
L 316.402826 71.195189 
L 316.402826 64.938033 
L 328.528913 64.938033 
L 328.528913 61.809455 
L 340.655 61.809455 
" clip-path="url(#p5cf2a836c6)" style="fill: none; stroke: #1f77b4; stroke-width: 1.5; stroke-linecap: square"/>
   </g>
   <g id="line2d_14">
    <path d="M 61.755 305.838545 
L 61.755 302.788182 
L 61.755 290.586727 
L 69.723571 290.586727 
L 69.723571 278.385273 
L 73.707857 278.385273 
L 73.707857 275.334909 
L 81.676429 275.334909 
L 81.676429 266.183818 
L 85.660714 266.183818 
L 85.660714 260.083091 
L 93.629286 260.083091 
L 93.629286 250.932 
L 101.597857 250.932 
L 101.597857 247.881636 
L 109.566429 247.881636 
L 109.566429 232.629818 
L 113.550714 232.629818 
L 113.550714 226.529091 
L 121.519286 226.529091 
L 121.519286 220.428364 
L 125.503571 220.428364 
L 125.503571 208.226909 
L 129.487857 208.226909 
L 129.487857 199.075818 
L 137.456429 199.075818 
L 137.456429 196.025455 
L 145.425 196.025455 
L 145.425 192.975091 
L 161.362143 192.975091 
L 161.362143 180.773636 
L 173.315 180.773636 
L 173.315 177.723273 
L 177.299286 177.723273 
L 177.299286 168.572182 
L 185.267857 168.572182 
L 185.267857 165.521818 
L 213.157857 165.521818 
L 213.157857 156.370727 
L 217.142143 156.370727 
L 217.142143 147.219636 
L 221.126429 147.219636 
L 221.126429 141.118909 
L 229.095 141.118909 
L 229.095 131.967818 
L 237.063571 131.967818 
L 237.063571 128.917455 
L 245.032143 128.917455 
L 245.032143 122.816727 
L 260.969286 122.816727 
L 260.969286 116.716 
L 264.953571 116.716 
L 264.953571 101.464182 
L 280.890714 101.464182 
L 280.890714 95.363455 
L 292.843571 95.363455 
L 292.843571 92.313091 
L 300.812143 92.313091 
L 300.812143 89.262727 
L 312.765 89.262727 
L 312.765 80.111636 
L 328.702143 77.061273 
L 328.702143 67.910182 
L 332.686429 67.910182 
L 332.686429 64.859818 
L 336.670714 64.859818 
L 336.670714 61.809455 
L 340.655 61.809455 
" clip-path="url(#p5cf2a836c6)" style="fill: none; stroke: #ff7f0e; stroke-width: 1.5; stroke-linecap: square"/>
   </g>
   <g id="line2d_15">
    <path d="M 61.755 305.838545 
L 61.755 302.709967 
L 61.755 296.452811 
L 65.797029 296.452811 
L 65.797029 293.324233 
L 69.839058 293.324233 
L 69.839058 287.067077 
L 86.007174 287.067077 
L 86.007174 271.424186 
L 110.259348 271.424186 
L 110.259348 268.295608 
L 122.385435 268.295608 
L 122.385435 265.16703 
L 126.427464 265.16703 
L 126.427464 262.038452 
L 142.59558 262.038452 
L 142.59558 252.652718 
L 146.637609 252.652718 
L 146.637609 237.009828 
L 150.679638 237.009828 
L 150.679638 233.881249 
L 154.721667 233.881249 
L 154.721667 211.981203 
L 162.805725 211.981203 
L 162.805725 208.852625 
L 174.931812 208.852625 
L 174.931812 205.724047 
L 178.973841 205.724047 
L 178.973841 193.209734 
L 183.01587 193.209734 
L 183.01587 186.952578 
L 191.099928 186.952578 
L 191.099928 174.438266 
L 195.141957 174.438266 
L 195.141957 168.18111 
L 203.226014 168.18111 
L 203.226014 165.052531 
L 207.268043 165.052531 
L 207.268043 161.923953 
L 211.310072 161.923953 
L 211.310072 158.795375 
L 215.352101 158.795375 
L 215.352101 155.666797 
L 223.436159 155.666797 
L 223.436159 146.281063 
L 239.604275 146.281063 
L 239.604275 143.152485 
L 247.688333 143.152485 
L 247.688333 140.023907 
L 255.772391 140.023907 
L 255.772391 127.509594 
L 275.982536 127.509594 
L 275.982536 114.995282 
L 288.108623 114.995282 
L 288.108623 111.866704 
L 292.150652 111.866704 
L 292.150652 105.609548 
L 296.192681 105.609548 
L 296.192681 102.48097 
L 308.318768 102.48097 
L 308.318768 86.838079 
L 312.360797 86.838079 
L 312.360797 74.323767 
L 316.402826 74.323767 
L 316.402826 71.195189 
L 324.486884 71.195189 
L 324.486884 68.066611 
L 332.570942 68.066611 
L 332.570942 64.938033 
L 336.612971 64.938033 
L 336.612971 61.809455 
L 340.655 61.809455 
" clip-path="url(#p5cf2a836c6)" style="fill: none; stroke: #2ca02c; stroke-width: 1.5; stroke-linecap: square"/>
   </g>
   <g id="line2d_16">
    <path d="M 61.755 305.838545 
L 340.655 61.809455 
" clip-path="url(#p5cf2a836c6)" style="fill: none; stroke-dasharray: 5.55,2.4; stroke-dashoffset: 0; stroke: #808080; stroke-width: 1.5"/>
   </g>
   <g id="patch_3">
    <path d="M 47.81 318.04 
L 47.81 49.608 
" style="fill: none; stroke: #000000; stroke-width: 0.8; stroke-linejoin: miter; stroke-linecap: square"/>
   </g>
   <g id="patch_4">
    <path d="M 354.6 318.04 
L 354.6 49.608 
" style="fill: none; stroke: #000000; stroke-width: 0.8; stroke-linejoin: miter; stroke-linecap: square"/>
   </g>
   <g id="patch_5">
    <path d="M 47.81 318.04 
L 354.6 318.04 
" style="fill: none; stroke: #000000; stroke-width: 0.8; stroke-linejoin: miter; stroke-linecap: square"/>
   </g>
   <g id="patch_6">
    <path d="M 47.81 49.608 
L 354.6 49.608 
" style="fill: none; stroke: #000000; stroke-width: 0.8; stroke-linejoin: miter; stroke-linecap: square"/>
   </g>
   <g id="text_15">
    <!-- A -->
    <g transform="translate(17.131 27.224395)scale(0.2 -0.2)">
     <defs>
      <path id="DejaVuSans-41" d="M 2188 4044 
L 1331 1722 
L 3047 1722 
L 2188 4044 
z
M 1831 4666 
L 2547 4666 
L 4325 0 
L 3669 0 
L 3244 1197 
L 1141 1197 
L 716 0 
L 50 0 
L 1831 4666 
z
" transform="scale(0.015625)"/>
     </defs>
     <use xlink:href="#DejaVuSans-41"/>
    </g>
   </g>
   <g id="text_16">
    <!-- ROC curve -->
    <g transform="translate(169.405 43.608)scale(0.12 -0.12)">
     <defs>
      <path id="DejaVuSans-4f" d="M 2522 4238 
Q 1834 4238 1429 3725 
Q 1025 3213 1025 2328 
Q 1025 1447 1429 934 
Q 1834 422 2522 422 
Q 3209 422 3611 934 
Q 4013 1447 4013 2328 
Q 4013 3213 3611 3725 
Q 3209 4238 2522 4238 
z
M 2522 4750 
Q 3503 4750 4090 4092 
Q 4678 3434 4678 2328 
Q 4678 1225 4090 567 
Q 3503 -91 2522 -91 
Q 1538 -91 948 565 
Q 359 1222 359 2328 
Q 359 3434 948 4092 
Q 1538 4750 2522 4750 
z
" transform="scale(0.015625)"/>
      <path id="DejaVuSans-43" d="M 4122 4306 
L 4122 3641 
Q 3803 3938 3442 4084 
Q 3081 4231 2675 4231 
Q 1875 4231 1450 3742 
Q 1025 3253 1025 2328 
Q 1025 1406 1450 917 
Q 1875 428 2675 428 
Q 3081 428 3442 575 
Q 3803 722 4122 1019 
L 4122 359 
Q 3791 134 3420 21 
Q 3050 -91 2638 -91 
Q 1578 -91 968 557 
Q 359 1206 359 2328 
Q 359 3453 968 4101 
Q 1578 4750 2638 4750 
Q 3056 4750 3426 4639 
Q 3797 4528 4122 4306 
z
" transform="scale(0.015625)"/>
      <path id="DejaVuSans-63" d="M 3122 3366 
L 3122 2828 
Q 2878 2963 2633 3030 
Q 2388 3097 2138 3097 
Q 1578 3097 1268 2742 
Q 959 2388 959 1747 
Q 959 1106 1268 751 
Q 1578 397 2138 397 
Q 2388 397 2633 464 
Q 2878 531 3122 666 
L 3122 134 
Q 2881 22 2623 -34 
Q 2366 -91 2075 -91 
Q 1284 -91 818 406 
Q 353 903 353 1747 
Q 353 2603 823 3093 
Q 1294 3584 2113 3584 
Q 2378 3584 2631 3529 
Q 2884 3475 3122 3366 
z
" transform="scale(0.015625)"/>
     </defs>
     <use xlink:href="#DejaVuSans-52"/>
     <use xlink:href="#DejaVuSans-4f" x="69.482422"/>
     <use xlink:href="#DejaVuSans-43" x="148.193359"/>
     <use xlink:href="#DejaVuSans-20" x="218.017578"/>
     <use xlink:href="#DejaVuSans-63" x="249.804688"/>
     <use xlink:href="#DejaVuSans-75" x="304.785156"/>
     <use xlink:href="#DejaVuSans-72" x="368.164062"/>
     <use xlink:href="#DejaVuSans-76" x="409.277344"/>
     <use xlink:href="#DejaVuSans-65" x="468.457031"/>
    </g>
   </g>
   <g id="legend_1">
    <g id="patch_7">
     <path d="M 54.81 101.642375 
L 183.655313 101.642375 
Q 185.655313 101.642375 185.655313 99.642375 
L 185.655313 56.608 
Q 185.655313 54.608 183.655313 54.608 
L 54.81 54.608 
Q 52.81 54.608 52.81 56.608 
L 52.81 99.642375 
Q 52.81 101.642375 54.81 101.642375 
z
" style="fill: #ffffff; opacity: 0.8; stroke: #cccccc; stroke-linejoin: miter"/>
    </g>
    <g id="line2d_17">
     <path d="M 56.81 62.706437 
L 66.81 62.706437 
L 76.81 62.706437 
" style="fill: none; stroke: #1f77b4; stroke-width: 1.5; stroke-linecap: square"/>
    </g>
    <g id="text_17">
     <!-- beta (AUC = 0.53) -->
     <g transform="translate(84.81 66.206437)scale(0.1 -0.1)">
      <defs>
       <path id="DejaVuSans-62" d="M 3116 1747 
Q 3116 2381 2855 2742 
Q 2594 3103 2138 3103 
Q 1681 3103 1420 2742 
Q 1159 2381 1159 1747 
Q 1159 1113 1420 752 
Q 1681 391 2138 391 
Q 2594 391 2855 752 
Q 3116 1113 3116 1747 
z
M 1159 2969 
Q 1341 3281 1617 3432 
Q 1894 3584 2278 3584 
Q 2916 3584 3314 3078 
Q 3713 2572 3713 1747 
Q 3713 922 3314 415 
Q 2916 -91 2278 -91 
Q 1894 -91 1617 61 
Q 1341 213 1159 525 
L 1159 0 
L 581 0 
L 581 4863 
L 1159 4863 
L 1159 2969 
z
" transform="scale(0.015625)"/>
       <path id="DejaVuSans-28" d="M 1984 4856 
Q 1566 4138 1362 3434 
Q 1159 2731 1159 2009 
Q 1159 1288 1364 580 
Q 1569 -128 1984 -844 
L 1484 -844 
Q 1016 -109 783 600 
Q 550 1309 550 2009 
Q 550 2706 781 3412 
Q 1013 4119 1484 4856 
L 1984 4856 
z
" transform="scale(0.015625)"/>
       <path id="DejaVuSans-55" d="M 556 4666 
L 1191 4666 
L 1191 1831 
Q 1191 1081 1462 751 
Q 1734 422 2344 422 
Q 2950 422 3222 751 
Q 3494 1081 3494 1831 
L 3494 4666 
L 4128 4666 
L 4128 1753 
Q 4128 841 3676 375 
Q 3225 -91 2344 -91 
Q 1459 -91 1007 375 
Q 556 841 556 1753 
L 556 4666 
z
" transform="scale(0.015625)"/>
       <path id="DejaVuSans-3d" d="M 678 2906 
L 4684 2906 
L 4684 2381 
L 678 2381 
L 678 2906 
z
M 678 1631 
L 4684 1631 
L 4684 1100 
L 678 1100 
L 678 1631 
z
" transform="scale(0.015625)"/>
       <path id="DejaVuSans-35" d="M 691 4666 
L 3169 4666 
L 3169 4134 
L 1269 4134 
L 1269 2991 
Q 1406 3038 1543 3061 
Q 1681 3084 1819 3084 
Q 2600 3084 3056 2656 
Q 3513 2228 3513 1497 
Q 3513 744 3044 326 
Q 2575 -91 1722 -91 
Q 1428 -91 1123 -41 
Q 819 9 494 109 
L 494 744 
Q 775 591 1075 516 
Q 1375 441 1709 441 
Q 2250 441 2565 725 
Q 2881 1009 2881 1497 
Q 2881 1984 2565 2268 
Q 2250 2553 1709 2553 
Q 1456 2553 1204 2497 
Q 953 2441 691 2322 
L 691 4666 
z
" transform="scale(0.015625)"/>
       <path id="DejaVuSans-33" d="M 2597 2516 
Q 3050 2419 3304 2112 
Q 3559 1806 3559 1356 
Q 3559 666 3084 287 
Q 2609 -91 1734 -91 
Q 1441 -91 1130 -33 
Q 819 25 488 141 
L 488 750 
Q 750 597 1062 519 
Q 1375 441 1716 441 
Q 2309 441 2620 675 
Q 2931 909 2931 1356 
Q 2931 1769 2642 2001 
Q 2353 2234 1838 2234 
L 1294 2234 
L 1294 2753 
L 1863 2753 
Q 2328 2753 2575 2939 
Q 2822 3125 2822 3475 
Q 2822 3834 2567 4026 
Q 2313 4219 1838 4219 
Q 1578 4219 1281 4162 
Q 984 4106 628 3988 
L 628 4550 
Q 988 4650 1302 4700 
Q 1616 4750 1894 4750 
Q 2613 4750 3031 4423 
Q 3450 4097 3450 3541 
Q 3450 3153 3228 2886 
Q 3006 2619 2597 2516 
z
" transform="scale(0.015625)"/>
       <path id="DejaVuSans-29" d="M 513 4856 
L 1013 4856 
Q 1481 4119 1714 3412 
Q 1947 2706 1947 2009 
Q 1947 1309 1714 600 
Q 1481 -109 1013 -844 
L 513 -844 
Q 928 -128 1133 580 
Q 1338 1288 1338 2009 
Q 1338 2731 1133 3434 
Q 928 4138 513 4856 
z
" transform="scale(0.015625)"/>
      </defs>
      <use xlink:href="#DejaVuSans-62"/>
      <use xlink:href="#DejaVuSans-65" x="63.476562"/>
      <use xlink:href="#DejaVuSans-74" x="125"/>
      <use xlink:href="#DejaVuSans-61" x="164.208984"/>
      <use xlink:href="#DejaVuSans-20" x="225.488281"/>
      <use xlink:href="#DejaVuSans-28" x="257.275391"/>
      <use xlink:href="#DejaVuSans-41" x="296.289062"/>
      <use xlink:href="#DejaVuSans-55" x="364.697266"/>
      <use xlink:href="#DejaVuSans-43" x="437.890625"/>
      <use xlink:href="#DejaVuSans-20" x="507.714844"/>
      <use xlink:href="#DejaVuSans-3d" x="539.501953"/>
      <use xlink:href="#DejaVuSans-20" x="623.291016"/>
      <use xlink:href="#DejaVuSans-30" x="655.078125"/>
      <use xlink:href="#DejaVuSans-2e" x="718.701172"/>
      <use xlink:href="#DejaVuSans-35" x="750.488281"/>
      <use xlink:href="#DejaVuSans-33" x="814.111328"/>
      <use xlink:href="#DejaVuSans-29" x="877.734375"/>
     </g>
    </g>
    <g id="line2d_18">
     <path d="M 56.81 77.384563 
L 66.81 77.384563 
L 76.81 77.384563 
" style="fill: none; stroke: #ff7f0e; stroke-width: 1.5; stroke-linecap: square"/>
    </g>
    <g id="text_18">
     <!-- alpha (AUC = 0.58) -->
     <g transform="translate(84.81 80.884563)scale(0.1 -0.1)">
      <defs>
       <path id="DejaVuSans-70" d="M 1159 525 
L 1159 -1331 
L 581 -1331 
L 581 3500 
L 1159 3500 
L 1159 2969 
Q 1341 3281 1617 3432 
Q 1894 3584 2278 3584 
Q 2916 3584 3314 3078 
Q 3713 2572 3713 1747 
Q 3713 922 3314 415 
Q 2916 -91 2278 -91 
Q 1894 -91 1617 61 
Q 1341 213 1159 525 
z
M 3116 1747 
Q 3116 2381 2855 2742 
Q 2594 3103 2138 3103 
Q 1681 3103 1420 2742 
Q 1159 2381 1159 1747 
Q 1159 1113 1420 752 
Q 1681 391 2138 391 
Q 2594 391 2855 752 
Q 3116 1113 3116 1747 
z
" transform="scale(0.015625)"/>
       <path id="DejaVuSans-68" d="M 3513 2113 
L 3513 0 
L 2938 0 
L 2938 2094 
Q 2938 2591 2744 2837 
Q 2550 3084 2163 3084 
Q 1697 3084 1428 2787 
Q 1159 2491 1159 1978 
L 1159 0 
L 581 0 
L 581 4863 
L 1159 4863 
L 1159 2956 
Q 1366 3272 1645 3428 
Q 1925 3584 2291 3584 
Q 2894 3584 3203 3211 
Q 3513 2838 3513 2113 
z
" transform="scale(0.015625)"/>
      </defs>
      <use xlink:href="#DejaVuSans-61"/>
      <use xlink:href="#DejaVuSans-6c" x="61.279297"/>
      <use xlink:href="#DejaVuSans-70" x="89.0625"/>
      <use xlink:href="#DejaVuSans-68" x="152.539062"/>
      <use xlink:href="#DejaVuSans-61" x="215.917969"/>
      <use xlink:href="#DejaVuSans-20" x="277.197266"/>
      <use xlink:href="#DejaVuSans-28" x="308.984375"/>
      <use xlink:href="#DejaVuSans-41" x="347.998047"/>
      <use xlink:href="#DejaVuSans-55" x="416.40625"/>
      <use xlink:href="#DejaVuSans-43" x="489.599609"/>
      <use xlink:href="#DejaVuSans-20" x="559.423828"/>
      <use xlink:href="#DejaVuSans-3d" x="591.210938"/>
      <use xlink:href="#DejaVuSans-20" x="675"/>
      <use xlink:href="#DejaVuSans-30" x="706.787109"/>
      <use xlink:href="#DejaVuSans-2e" x="770.410156"/>
      <use xlink:href="#DejaVuSans-35" x="802.197266"/>
      <use xlink:href="#DejaVuSans-38" x="865.820312"/>
      <use xlink:href="#DejaVuSans-29" x="929.443359"/>
     </g>
    </g>
    <g id="line2d_19">
     <path d="M 56.81 92.062687 
L 66.81 92.062687 
L 76.81 92.062687 
" style="fill: none; stroke: #2ca02c; stroke-width: 1.5; stroke-linecap: square"/>
    </g>
    <g id="text_19">
     <!-- joint (AUC = 0.51) -->
     <g transform="translate(84.81 95.562687)scale(0.1 -0.1)">
      <defs>
       <path id="DejaVuSans-6a" d="M 603 3500 
L 1178 3500 
L 1178 -63 
Q 1178 -731 923 -1031 
Q 669 -1331 103 -1331 
L -116 -1331 
L -116 -844 
L 38 -844 
Q 366 -844 484 -692 
Q 603 -541 603 -63 
L 603 3500 
z
M 603 4863 
L 1178 4863 
L 1178 4134 
L 603 4134 
L 603 4863 
z
" transform="scale(0.015625)"/>
       <path id="DejaVuSans-6e" d="M 3513 2113 
L 3513 0 
L 2938 0 
L 2938 2094 
Q 2938 2591 2744 2837 
Q 2550 3084 2163 3084 
Q 1697 3084 1428 2787 
Q 1159 2491 1159 1978 
L 1159 0 
L 581 0 
L 581 3500 
L 1159 3500 
L 1159 2956 
Q 1366 3272 1645 3428 
Q 1925 3584 2291 3584 
Q 2894 3584 3203 3211 
Q 3513 2838 3513 2113 
z
" transform="scale(0.015625)"/>
      </defs>
      <use xlink:href="#DejaVuSans-6a"/>
      <use xlink:href="#DejaVuSans-6f" x="27.783203"/>
      <use xlink:href="#DejaVuSans-69" x="88.964844"/>
      <use xlink:href="#DejaVuSans-6e" x="116.748047"/>
      <use xlink:href="#DejaVuSans-74" x="180.126953"/>
      <use xlink:href="#DejaVuSans-20" x="219.335938"/>
      <use xlink:href="#DejaVuSans-28" x="251.123047"/>
      <use xlink:href="#DejaVuSans-41" x="290.136719"/>
      <use xlink:href="#DejaVuSans-55" x="358.544922"/>
      <use xlink:href="#DejaVuSans-43" x="431.738281"/>
      <use xlink:href="#DejaVuSans-20" x="501.5625"/>
      <use xlink:href="#DejaVuSans-3d" x="533.349609"/>
      <use xlink:href="#DejaVuSans-20" x="617.138672"/>
      <use xlink:href="#DejaVuSans-30" x="648.925781"/>
      <use xlink:href="#DejaVuSans-2e" x="712.548828"/>
      <use xlink:href="#DejaVuSans-35" x="744.335938"/>
      <use xlink:href="#DejaVuSans-31" x="807.958984"/>
      <use xlink:href="#DejaVuSans-29" x="871.582031"/>
     </g>
    </g>
   </g>
  </g>
  <g id="axes_2">
   <g id="patch_8">
    <path d="M 402.41 318.04 
L 709.2 318.04 
L 709.2 49.608 
L 402.41 49.608 
z
" style="fill: #ffffff"/>
   </g>
   <g id="matplotlib.axis_3">
    <g id="xtick_7">
     <g id="line2d_20">
      <g>
       <use xlink:href="#me1dd921b15" x="416.355" y="318.04" style="stroke: #000000; stroke-width: 0.8"/>
      </g>
     </g>
     <g id="text_20">
      <!-- 0.0 -->
      <g transform="translate(408.403437 332.638438)scale(0.1 -0.1)">
       <use xlink:href="#DejaVuSans-30"/>
       <use xlink:href="#DejaVuSans-2e" x="63.623047"/>
       <use xlink:href="#DejaVuSans-30" x="95.410156"/>
      </g>
     </g>
    </g>
    <g id="xtick_8">
     <g id="line2d_21">
      <g>
       <use xlink:href="#me1dd921b15" x="472.135" y="318.04" style="stroke: #000000; stroke-width: 0.8"/>
      </g>
     </g>
     <g id="text_21">
      <!-- 0.2 -->
      <g transform="translate(464.183437 332.638438)scale(0.1 -0.1)">
       <use xlink:href="#DejaVuSans-30"/>
       <use xlink:href="#DejaVuSans-2e" x="63.623047"/>
       <use xlink:href="#DejaVuSans-32" x="95.410156"/>
      </g>
     </g>
    </g>
    <g id="xtick_9">
     <g id="line2d_22">
      <g>
       <use xlink:href="#me1dd921b15" x="527.915" y="318.04" style="stroke: #000000; stroke-width: 0.8"/>
      </g>
     </g>
     <g id="text_22">
      <!-- 0.4 -->
      <g transform="translate(519.963437 332.638438)scale(0.1 -0.1)">
       <use xlink:href="#DejaVuSans-30"/>
       <use xlink:href="#DejaVuSans-2e" x="63.623047"/>
       <use xlink:href="#DejaVuSans-34" x="95.410156"/>
      </g>
     </g>
    </g>
    <g id="xtick_10">
     <g id="line2d_23">
      <g>
       <use xlink:href="#me1dd921b15" x="583.695" y="318.04" style="stroke: #000000; stroke-width: 0.8"/>
      </g>
     </g>
     <g id="text_23">
      <!-- 0.6 -->
      <g transform="translate(575.743437 332.638438)scale(0.1 -0.1)">
       <use xlink:href="#DejaVuSans-30"/>
       <use xlink:href="#DejaVuSans-2e" x="63.623047"/>
       <use xlink:href="#DejaVuSans-36" x="95.410156"/>
      </g>
     </g>
    </g>
    <g id="xtick_11">
     <g id="line2d_24">
      <g>
       <use xlink:href="#me1dd921b15" x="639.475" y="318.04" style="stroke: #000000; stroke-width: 0.8"/>
      </g>
     </g>
     <g id="text_24">
      <!-- 0.8 -->
      <g transform="translate(631.523438 332.638438)scale(0.1 -0.1)">
       <use xlink:href="#DejaVuSans-30"/>
       <use xlink:href="#DejaVuSans-2e" x="63.623047"/>
       <use xlink:href="#DejaVuSans-38" x="95.410156"/>
      </g>
     </g>
    </g>
    <g id="xtick_12">
     <g id="line2d_25">
      <g>
       <use xlink:href="#me1dd921b15" x="695.255" y="318.04" style="stroke: #000000; stroke-width: 0.8"/>
      </g>
     </g>
     <g id="text_25">
      <!-- 1.0 -->
      <g transform="translate(687.303438 332.638438)scale(0.1 -0.1)">
       <use xlink:href="#DejaVuSans-31"/>
       <use xlink:href="#DejaVuSans-2e" x="63.623047"/>
       <use xlink:href="#DejaVuSans-30" x="95.410156"/>
      </g>
     </g>
    </g>
    <g id="text_26">
     <!-- Recall -->
     <g transform="translate(540.887813 346.316563)scale(0.1 -0.1)">
      <use xlink:href="#DejaVuSans-52"/>
      <use xlink:href="#DejaVuSans-65" x="64.982422"/>
      <use xlink:href="#DejaVuSans-63" x="126.505859"/>
      <use xlink:href="#DejaVuSans-61" x="181.486328"/>
      <use xlink:href="#DejaVuSans-6c" x="242.765625"/>
      <use xlink:href="#DejaVuSans-6c" x="270.548828"/>
     </g>
    </g>
   </g>
   <g id="matplotlib.axis_4">
    <g id="ytick_7">
     <g id="line2d_26">
      <g>
       <use xlink:href="#mb819892f12" x="402.41" y="310.719127" style="stroke: #000000; stroke-width: 0.8"/>
      </g>
     </g>
     <g id="text_27">
      <!-- 0.4 -->
      <g transform="translate(379.506875 314.518346)scale(0.1 -0.1)">
       <use xlink:href="#DejaVuSans-30"/>
       <use xlink:href="#DejaVuSans-2e" x="63.623047"/>
       <use xlink:href="#DejaVuSans-34" x="95.410156"/>
      </g>
     </g>
    </g>
    <g id="ytick_8">
     <g id="line2d_27">
      <g>
       <use xlink:href="#mb819892f12" x="402.41" y="269.234182" style="stroke: #000000; stroke-width: 0.8"/>
      </g>
     </g>
     <g id="text_28">
      <!-- 0.5 -->
      <g transform="translate(379.506875 273.033401)scale(0.1 -0.1)">
       <use xlink:href="#DejaVuSans-30"/>
       <use xlink:href="#DejaVuSans-2e" x="63.623047"/>
       <use xlink:href="#DejaVuSans-35" x="95.410156"/>
      </g>
     </g>
    </g>
    <g id="ytick_9">
     <g id="line2d_28">
      <g>
       <use xlink:href="#mb819892f12" x="402.41" y="227.749236" style="stroke: #000000; stroke-width: 0.8"/>
      </g>
     </g>
     <g id="text_29">
      <!-- 0.6 -->
      <g transform="translate(379.506875 231.548455)scale(0.1 -0.1)">
       <use xlink:href="#DejaVuSans-30"/>
       <use xlink:href="#DejaVuSans-2e" x="63.623047"/>
       <use xlink:href="#DejaVuSans-36" x="95.410156"/>
      </g>
     </g>
    </g>
    <g id="ytick_10">
     <g id="line2d_29">
      <g>
       <use xlink:href="#mb819892f12" x="402.41" y="186.264291" style="stroke: #000000; stroke-width: 0.8"/>
      </g>
     </g>
     <g id="text_30">
      <!-- 0.7 -->
      <g transform="translate(379.506875 190.06351)scale(0.1 -0.1)">
       <defs>
        <path id="DejaVuSans-37" d="M 525 4666 
L 3525 4666 
L 3525 4397 
L 1831 0 
L 1172 0 
L 2766 4134 
L 525 4134 
L 525 4666 
z
" transform="scale(0.015625)"/>
       </defs>
       <use xlink:href="#DejaVuSans-30"/>
       <use xlink:href="#DejaVuSans-2e" x="63.623047"/>
       <use xlink:href="#DejaVuSans-37" x="95.410156"/>
      </g>
     </g>
    </g>
    <g id="ytick_11">
     <g id="line2d_30">
      <g>
       <use xlink:href="#mb819892f12" x="402.41" y="144.779345" style="stroke: #000000; stroke-width: 0.8"/>
      </g>
     </g>
     <g id="text_31">
      <!-- 0.8 -->
      <g transform="translate(379.506875 148.578564)scale(0.1 -0.1)">
       <use xlink:href="#DejaVuSans-30"/>
       <use xlink:href="#DejaVuSans-2e" x="63.623047"/>
       <use xlink:href="#DejaVuSans-38" x="95.410156"/>
      </g>
     </g>
    </g>
    <g id="ytick_12">
     <g id="line2d_31">
      <g>
       <use xlink:href="#mb819892f12" x="402.41" y="103.2944" style="stroke: #000000; stroke-width: 0.8"/>
      </g>
     </g>
     <g id="text_32">
      <!-- 0.9 -->
      <g transform="translate(379.506875 107.093619)scale(0.1 -0.1)">
       <defs>
        <path id="DejaVuSans-39" d="M 703 97 
L 703 672 
Q 941 559 1184 500 
Q 1428 441 1663 441 
Q 2288 441 2617 861 
Q 2947 1281 2994 2138 
Q 2813 1869 2534 1725 
Q 2256 1581 1919 1581 
Q 1219 1581 811 2004 
Q 403 2428 403 3163 
Q 403 3881 828 4315 
Q 1253 4750 1959 4750 
Q 2769 4750 3195 4129 
Q 3622 3509 3622 2328 
Q 3622 1225 3098 567 
Q 2575 -91 1691 -91 
Q 1453 -91 1209 -44 
Q 966 3 703 97 
z
M 1959 2075 
Q 2384 2075 2632 2365 
Q 2881 2656 2881 3163 
Q 2881 3666 2632 3958 
Q 2384 4250 1959 4250 
Q 1534 4250 1286 3958 
Q 1038 3666 1038 3163 
Q 1038 2656 1286 2365 
Q 1534 2075 1959 2075 
z
" transform="scale(0.015625)"/>
       </defs>
       <use xlink:href="#DejaVuSans-30"/>
       <use xlink:href="#DejaVuSans-2e" x="63.623047"/>
       <use xlink:href="#DejaVuSans-39" x="95.410156"/>
      </g>
     </g>
    </g>
    <g id="ytick_13">
     <g id="line2d_32">
      <g>
       <use xlink:href="#mb819892f12" x="402.41" y="61.809455" style="stroke: #000000; stroke-width: 0.8"/>
      </g>
     </g>
     <g id="text_33">
      <!-- 1.0 -->
      <g transform="translate(379.506875 65.608673)scale(0.1 -0.1)">
       <use xlink:href="#DejaVuSans-31"/>
       <use xlink:href="#DejaVuSans-2e" x="63.623047"/>
       <use xlink:href="#DejaVuSans-30" x="95.410156"/>
      </g>
     </g>
    </g>
    <g id="text_34">
     <!-- Precision -->
     <g transform="translate(373.427188 206.131031)rotate(-90)scale(0.1 -0.1)">
      <use xlink:href="#DejaVuSans-50"/>
      <use xlink:href="#DejaVuSans-72" x="58.552734"/>
      <use xlink:href="#DejaVuSans-65" x="97.416016"/>
      <use xlink:href="#DejaVuSans-63" x="158.939453"/>
      <use xlink:href="#DejaVuSans-69" x="213.919922"/>
      <use xlink:href="#DejaVuSans-73" x="241.703125"/>
      <use xlink:href="#DejaVuSans-69" x="293.802734"/>
      <use xlink:href="#DejaVuSans-6f" x="321.585938"/>
      <use xlink:href="#DejaVuSans-6e" x="382.767578"/>
     </g>
    </g>
   </g>
   <g id="line2d_33">
    <path d="M 695.255 251.948788 
L 691.679359 251.948788 
L 691.679359 253.278434 
L 691.679359 248.491709 
L 688.103718 248.491709 
L 688.103718 249.834747 
L 684.528077 249.834747 
L 684.528077 251.197249 
L 684.528077 249.551543 
L 680.952436 249.551543 
L 680.952436 250.932 
L 677.376795 250.932 
L 677.376795 252.332908 
L 677.376795 250.658833 
L 673.801154 250.658833 
L 673.801154 252.078753 
L 673.801154 250.377388 
L 670.225513 250.377388 
L 670.225513 251.816838 
L 666.649872 251.816838 
L 666.649872 253.278434 
L 663.074231 253.278434 
L 663.074231 254.762689 
L 659.49859 254.762689 
L 659.49859 256.270136 
L 655.922949 256.270136 
L 655.922949 257.801323 
L 655.922949 256.064358 
L 652.347308 256.064358 
L 652.347308 257.618397 
L 652.347308 255.851941 
L 648.771667 255.851941 
L 648.771667 257.429523 
L 648.771667 255.63256 
L 645.196026 255.63256 
L 645.196026 257.234404 
L 645.196026 253.546597 
L 641.620385 253.546597 
L 641.620385 255.171488 
L 641.620385 253.278434 
L 638.044744 253.278434 
L 638.044744 254.929028 
L 634.469103 254.929028 
L 634.469103 256.608329 
L 634.469103 254.678061 
L 630.893462 254.678061 
L 630.893462 256.384862 
L 627.317821 256.384862 
L 627.317821 258.122143 
L 627.317821 254.148747 
L 623.742179 254.148747 
L 623.742179 255.913328 
L 623.742179 253.869387 
L 620.166538 253.869387 
L 620.166538 255.66434 
L 620.166538 251.454919 
L 616.590897 251.454919 
L 616.590897 253.278434 
L 613.015256 253.278434 
L 613.015256 255.137356 
L 613.015256 250.75079 
L 609.439615 250.75079 
L 609.439615 252.640204 
L 605.863974 252.640204 
L 605.863974 254.567787 
L 605.863974 252.301551 
L 602.288333 252.301551 
L 602.288333 254.265387 
L 602.288333 247.167721 
L 598.712692 247.167721 
L 598.712692 249.160821 
L 598.712692 244.160863 
L 595.137051 244.160863 
L 595.137051 246.18699 
L 591.56141 246.18699 
L 591.56141 248.258648 
L 587.985769 248.258648 
L 587.985769 250.377388 
L 584.410128 250.377388 
L 584.410128 252.544836 
L 580.834487 252.544836 
L 580.834487 254.762689 
L 577.258846 254.762689 
L 577.258846 257.032727 
L 577.258846 254.41813 
L 573.683205 254.41813 
L 573.683205 256.738716 
L 570.107564 256.738716 
L 570.107564 259.115902 
L 570.107564 253.677327 
L 566.531923 253.677327 
L 566.531923 256.106035 
L 562.956282 256.106035 
L 562.956282 258.597016 
L 562.956282 255.765044 
L 559.380641 255.765044 
L 559.380641 258.317091 
L 559.380641 252.415961 
L 555.805 252.415961 
L 555.805 255.027009 
L 555.805 248.783857 
L 552.229359 248.783857 
L 552.229359 251.454919 
L 548.653718 251.454919 
L 548.653718 254.203404 
L 548.653718 244.091791 
L 545.078077 244.091791 
L 545.078077 246.896134 
L 541.502436 246.896134 
L 541.502436 249.788114 
L 541.502436 230.561775 
L 537.926795 230.561775 
L 537.926795 233.471298 
L 534.351154 233.471298 
L 534.351154 236.482909 
L 530.775513 236.482909 
L 530.775513 239.602078 
L 527.199872 239.602078 
L 527.199872 242.834671 
L 523.624231 242.834671 
L 523.624231 246.18699 
L 523.624231 241.838463 
L 520.04859 241.838463 
L 520.04859 245.300559 
L 520.04859 240.764121 
L 516.472949 240.764121 
L 516.472949 244.343215 
L 512.897308 244.343215 
L 512.897308 248.068393 
L 509.321667 248.068393 
L 509.321667 251.948788 
L 505.746026 251.948788 
L 505.746026 255.994306 
L 502.170385 255.994306 
L 502.170385 260.215715 
L 502.170385 255.405867 
L 498.594744 255.405867 
L 498.594744 259.805785 
L 498.594744 243.938483 
L 495.019103 243.938483 
L 495.019103 248.491709 
L 495.019103 229.991666 
L 491.443462 229.991666 
L 491.443462 234.663394 
L 487.867821 234.663394 
L 487.867821 239.602078 
L 487.867821 225.234997 
L 484.292179 225.234997 
L 484.292179 230.342045 
L 484.292179 222.39634 
L 480.716538 222.39634 
L 480.716538 227.749236 
L 477.140897 227.749236 
L 477.140897 233.471298 
L 473.565256 233.471298 
L 473.565256 239.602078 
L 473.565256 221.366937 
L 469.989615 221.366937 
L 469.989615 227.749236 
L 466.413974 227.749236 
L 466.413974 234.663394 
L 466.413974 224.14185 
L 462.838333 224.14185 
L 462.838333 231.520595 
L 462.838333 192.814545 
L 459.262692 192.814545 
L 459.262692 200.092606 
L 459.262692 183.824 
L 455.687051 183.824 
L 455.687051 191.449909 
L 452.11141 191.449909 
L 452.11141 200.092606 
L 452.11141 157.543944 
L 448.535769 157.543944 
L 448.535769 165.521818 
L 444.960128 165.521818 
L 444.960128 174.950215 
L 441.384487 174.950215 
L 441.384487 186.264291 
L 437.808846 186.264291 
L 437.808846 200.092606 
L 434.233205 200.092606 
L 434.233205 217.378 
L 430.657564 217.378 
L 430.657564 239.602078 
L 430.657564 200.092606 
L 427.081923 200.092606 
L 427.081923 227.749236 
L 423.506282 227.749236 
L 423.506282 269.234182 
L 423.506282 61.809455 
L 416.355 61.809455 
L 416.355 61.809455 
" clip-path="url(#pdaff6c6a02)" style="fill: none; stroke: #1f77b4; stroke-width: 1.5; stroke-linecap: square"/>
   </g>
   <g id="line2d_34">
    <path d="M 695.255 253.920947 
L 691.76875 253.920947 
L 691.76875 255.218998 
L 691.76875 253.712604 
L 688.2825 253.712604 
L 688.2825 255.027009 
L 688.2825 253.498513 
L 684.79625 253.498513 
L 684.79625 254.829687 
L 681.31 254.829687 
L 681.31 256.179479 
L 677.82375 256.179479 
L 677.82375 257.548282 
L 674.3375 257.548282 
L 674.3375 252.579642 
L 670.85125 252.579642 
L 670.85125 253.982364 
L 667.365 253.982364 
L 667.365 255.405867 
L 663.87875 255.405867 
L 663.87875 256.850616 
L 663.87875 251.816838 
L 660.3925 251.816838 
L 660.3925 253.278434 
L 660.3925 249.788114 
L 656.90625 249.788114 
L 656.90625 251.268261 
L 656.90625 245.815261 
L 653.42 245.815261 
L 653.42 247.311243 
L 649.93375 247.311243 
L 649.93375 248.83175 
L 649.93375 241.108795 
L 646.4475 241.108795 
L 646.4475 242.641268 
L 642.96125 242.641268 
L 642.96125 244.200163 
L 639.475 244.200163 
L 639.475 245.786169 
L 635.98875 245.786169 
L 635.98875 247.4 
L 632.5025 247.4 
L 632.5025 249.042394 
L 632.5025 247.010104 
L 629.01625 247.010104 
L 629.01625 248.678578 
L 625.53 248.678578 
L 625.53 250.377388 
L 625.53 241.838463 
L 622.04375 241.838463 
L 622.04375 243.553025 
L 618.5575 243.553025 
L 618.5575 245.300559 
L 618.5575 240.764121 
L 615.07125 240.764121 
L 615.07125 242.53595 
L 615.07125 237.806193 
L 611.585 237.806193 
L 611.585 239.602078 
L 608.09875 239.602078 
L 608.09875 241.434992 
L 604.6125 241.434992 
L 604.6125 243.306091 
L 604.6125 238.341137 
L 601.12625 238.341137 
L 601.12625 240.239327 
L 597.64 240.239327 
L 597.64 242.178783 
L 597.64 239.602078 
L 594.15375 239.602078 
L 594.15375 241.577552 
L 590.6675 241.577552 
L 590.6675 243.597418 
L 587.18125 243.597418 
L 587.18125 245.66319 
L 587.18125 243.008067 
L 583.695 243.008067 
L 583.695 245.115027 
L 580.20875 245.115027 
L 580.20875 247.271564 
L 576.7225 247.271564 
L 576.7225 249.479446 
L 576.7225 228.826767 
L 573.23625 228.826767 
L 573.23625 231.024364 
L 573.23625 224.385592 
L 569.75 224.385592 
L 569.75 226.612663 
L 566.26375 226.612663 
L 566.26375 228.901596 
L 562.7775 228.901596 
L 562.7775 231.255006 
L 562.7775 227.749236 
L 559.29125 227.749236 
L 559.29125 230.154161 
L 559.29125 218.949399 
L 555.805 218.949399 
L 555.805 221.366937 
L 552.31875 221.366937 
L 552.31875 223.860023 
L 548.8325 223.860023 
L 548.8325 226.432254 
L 545.34625 226.432254 
L 545.34625 229.08746 
L 545.34625 212.013567 
L 541.86 212.013567 
L 541.86 214.648727 
L 541.86 205.121084 
L 538.37375 205.121084 
L 538.37375 207.775003 
L 538.37375 197.433315 
L 534.8875 197.433315 
L 534.8875 200.092606 
L 531.40125 200.092606 
L 531.40125 202.858269 
L 527.915 202.858269 
L 527.915 205.736816 
L 527.915 200.092606 
L 524.42875 200.092606 
L 524.42875 203.034801 
L 520.9425 203.034801 
L 520.9425 206.104917 
L 517.45625 206.104917 
L 517.45625 209.311483 
L 513.97 209.311483 
L 513.97 212.663802 
L 513.97 206.524381 
L 510.48375 206.524381 
L 510.48375 209.969974 
L 506.9975 209.969974 
L 506.9975 213.583645 
L 506.9975 200.092606 
L 503.51125 200.092606 
L 503.51125 203.731636 
L 500.025 203.731636 
L 500.025 207.567371 
L 500.025 200.092606 
L 496.53875 200.092606 
L 496.53875 204.043553 
L 493.0525 204.043553 
L 493.0525 208.226909 
L 489.56625 208.226909 
L 489.56625 212.663802 
L 486.08 212.663802 
L 486.08 217.378 
L 482.59375 217.378 
L 482.59375 222.39634 
L 482.59375 204.860991 
L 479.1075 204.860991 
L 479.1075 209.969974 
L 479.1075 189.455441 
L 475.62125 189.455441 
L 475.62125 194.56128 
L 472.135 194.56128 
L 472.135 200.092606 
L 468.64875 200.092606 
L 468.64875 206.104917 
L 468.64875 180.33787 
L 465.1625 180.33787 
L 465.1625 186.264291 
L 461.67625 186.264291 
L 461.67625 192.814545 
L 461.67625 177.045414 
L 458.19 177.045414 
L 458.19 183.824 
L 454.70375 183.824 
L 454.70375 191.449909 
L 451.2175 191.449909 
L 451.2175 200.092606 
L 451.2175 157.543944 
L 447.73125 157.543944 
L 447.73125 165.521818 
L 447.73125 137.236628 
L 444.245 137.236628 
L 444.245 144.779345 
L 440.75875 144.779345 
L 440.75875 153.998222 
L 437.2725 153.998222 
L 437.2725 165.521818 
L 433.78625 165.521818 
L 433.78625 180.33787 
L 433.78625 61.809455 
L 416.355 61.809455 
L 416.355 61.809455 
" clip-path="url(#pdaff6c6a02)" style="fill: none; stroke: #ff7f0e; stroke-width: 1.5; stroke-linecap: square"/>
   </g>
   <g id="line2d_35">
    <path d="M 695.255 255.027009 
L 691.679359 255.027009 
L 691.679359 256.359544 
L 691.679359 254.829687 
L 688.103718 254.829687 
L 688.103718 256.179479 
L 688.103718 253.052111 
L 684.528077 253.052111 
L 684.528077 254.41813 
L 684.528077 251.197249 
L 680.952436 251.197249 
L 680.952436 252.579642 
L 680.952436 250.932 
L 677.376795 250.932 
L 677.376795 252.332908 
L 673.801154 252.332908 
L 673.801154 253.754725 
L 670.225513 253.754725 
L 670.225513 255.197922 
L 666.649872 255.197922 
L 666.649872 256.662986 
L 666.649872 254.983628 
L 663.074231 254.983628 
L 663.074231 256.469583 
L 659.49859 256.469583 
L 659.49859 257.978576 
L 655.922949 257.978576 
L 655.922949 259.511148 
L 652.347308 259.511148 
L 652.347308 261.067854 
L 648.771667 261.067854 
L 648.771667 262.64927 
L 648.771667 257.429523 
L 645.196026 257.429523 
L 645.196026 259.032966 
L 645.196026 257.234404 
L 641.620385 257.234404 
L 641.620385 258.862945 
L 638.044744 258.862945 
L 638.044744 260.518857 
L 638.044744 258.687162 
L 634.469103 258.687162 
L 634.469103 260.369877 
L 634.469103 254.678061 
L 630.893462 254.678061 
L 630.893462 256.384862 
L 627.317821 256.384862 
L 627.317821 258.122143 
L 623.742179 258.122143 
L 623.742179 259.890726 
L 620.166538 259.890726 
L 620.166538 261.691464 
L 620.166538 251.454919 
L 616.590897 251.454919 
L 616.590897 253.278434 
L 613.015256 253.278434 
L 613.015256 255.137356 
L 609.439615 255.137356 
L 609.439615 257.032727 
L 605.863974 257.032727 
L 605.863974 258.965631 
L 605.863974 254.567787 
L 602.288333 254.567787 
L 602.288333 256.534709 
L 602.288333 251.948788 
L 598.712692 251.948788 
L 598.712692 253.950255 
L 598.712692 244.160863 
L 595.137051 244.160863 
L 595.137051 246.18699 
L 591.56141 246.18699 
L 591.56141 248.258648 
L 587.985769 248.258648 
L 587.985769 250.377388 
L 587.985769 245.115027 
L 584.410128 245.115027 
L 584.410128 247.271564 
L 584.410128 244.540762 
L 580.834487 244.540762 
L 580.834487 246.742344 
L 580.834487 243.938483 
L 577.258846 243.938483 
L 577.258846 246.18699 
L 577.258846 243.306091 
L 573.683205 243.306091 
L 573.683205 245.603517 
L 573.683205 239.602078 
L 570.107564 239.602078 
L 570.107564 241.941455 
L 566.531923 241.941455 
L 566.531923 244.343215 
L 566.531923 241.203813 
L 562.956282 241.203813 
L 562.956282 243.66127 
L 559.380641 243.66127 
L 559.380641 246.18699 
L 555.805 246.18699 
L 555.805 248.783857 
L 552.229359 248.783857 
L 552.229359 251.454919 
L 552.229359 244.831273 
L 548.653718 244.831273 
L 548.653718 247.562942 
L 545.078077 247.562942 
L 545.078077 250.377388 
L 545.078077 246.896134 
L 541.502436 246.896134 
L 541.502436 249.788114 
L 537.926795 249.788114 
L 537.926795 252.771902 
L 534.351154 252.771902 
L 534.351154 255.851941 
L 530.775513 255.851941 
L 530.775513 259.032966 
L 530.775513 255.405867 
L 527.199872 255.405867 
L 527.199872 258.687162 
L 527.199872 247.010104 
L 523.624231 247.010104 
L 523.624231 250.377388 
L 523.624231 241.838463 
L 520.04859 241.838463 
L 520.04859 245.300559 
L 516.472949 245.300559 
L 516.472949 248.898424 
L 512.897308 248.898424 
L 512.897308 252.640204 
L 509.321667 252.640204 
L 509.321667 256.534709 
L 505.746026 256.534709 
L 505.746026 260.591485 
L 502.170385 260.591485 
L 502.170385 264.82089 
L 498.594744 264.82089 
L 498.594744 269.234182 
L 498.594744 264.624743 
L 495.019103 264.624743 
L 495.019103 269.234182 
L 495.019103 264.410351 
L 491.443462 264.410351 
L 491.443462 269.234182 
L 487.867821 269.234182 
L 487.867821 274.293322 
L 484.292179 274.293322 
L 484.292179 279.605418 
L 480.716538 279.605418 
L 480.716538 285.18993 
L 477.140897 285.18993 
L 477.140897 291.068364 
L 477.140897 286.052403 
L 473.565256 286.052403 
L 473.565256 292.281374 
L 469.989615 292.281374 
L 469.989615 298.866286 
L 466.413974 298.866286 
L 466.413974 305.838545 
L 466.413974 283.062497 
L 462.838333 283.062497 
L 462.838333 290.691912 
L 462.838333 284.050234 
L 459.262692 284.050234 
L 459.262692 292.281374 
L 459.262692 269.234182 
L 455.687051 269.234182 
L 455.687051 278.252648 
L 455.687051 208.226909 
L 452.11141 208.226909 
L 452.11141 217.378 
L 448.535769 217.378 
L 448.535769 227.749236 
L 444.960128 227.749236 
L 444.960128 239.602078 
L 441.384487 239.602078 
L 441.384487 253.278434 
L 437.808846 253.278434 
L 437.808846 269.234182 
L 437.808846 165.521818 
L 434.233205 165.521818 
L 434.233205 180.33787 
L 430.657564 180.33787 
L 430.657564 200.092606 
L 430.657564 144.779345 
L 427.081923 144.779345 
L 427.081923 165.521818 
L 427.081923 61.809455 
L 416.355 61.809455 
L 416.355 61.809455 
" clip-path="url(#pdaff6c6a02)" style="fill: none; stroke: #2ca02c; stroke-width: 1.5; stroke-linecap: square"/>
   </g>
   <g id="patch_9">
    <path d="M 402.41 318.04 
L 402.41 49.608 
" style="fill: none; stroke: #000000; stroke-width: 0.8; stroke-linejoin: miter; stroke-linecap: square"/>
   </g>
   <g id="patch_10">
    <path d="M 709.2 318.04 
L 709.2 49.608 
" style="fill: none; stroke: #000000; stroke-width: 0.8; stroke-linejoin: miter; stroke-linecap: square"/>
   </g>
   <g id="patch_11">
    <path d="M 402.41 318.04 
L 709.2 318.04 
" style="fill: none; stroke: #000000; stroke-width: 0.8; stroke-linejoin: miter; stroke-linecap: square"/>
   </g>
   <g id="patch_12">
    <path d="M 402.41 49.608 
L 709.2 49.608 
" style="fill: none; stroke: #000000; stroke-width: 0.8; stroke-linejoin: miter; stroke-linecap: square"/>
   </g>
   <g id="text_35">
    <!-- B -->
    <g transform="translate(371.731 27.224395)scale(0.2 -0.2)">
     <defs>
      <path id="DejaVuSans-42" d="M 1259 2228 
L 1259 519 
L 2272 519 
Q 2781 519 3026 730 
Q 3272 941 3272 1375 
Q 3272 1813 3026 2020 
Q 2781 2228 2272 2228 
L 1259 2228 
z
M 1259 4147 
L 1259 2741 
L 2194 2741 
Q 2656 2741 2882 2914 
Q 3109 3088 3109 3444 
Q 3109 3797 2882 3972 
Q 2656 4147 2194 4147 
L 1259 4147 
z
M 628 4666 
L 2241 4666 
Q 2963 4666 3353 4366 
Q 3744 4066 3744 3513 
Q 3744 3084 3544 2831 
Q 3344 2578 2956 2516 
Q 3422 2416 3680 2098 
Q 3938 1781 3938 1306 
Q 3938 681 3513 340 
Q 3088 0 2303 0 
L 628 0 
L 628 4666 
z
" transform="scale(0.015625)"/>
     </defs>
     <use xlink:href="#DejaVuSans-42"/>
    </g>
   </g>
   <g id="text_36">
    <!-- Precision-Recall curve -->
    <g transform="translate(490.253125 43.608)scale(0.12 -0.12)">
     <defs>
      <path id="DejaVuSans-2d" d="M 313 2009 
L 1997 2009 
L 1997 1497 
L 313 1497 
L 313 2009 
z
" transform="scale(0.015625)"/>
     </defs>
     <use xlink:href="#DejaVuSans-50"/>
     <use xlink:href="#DejaVuSans-72" x="58.552734"/>
     <use xlink:href="#DejaVuSans-65" x="97.416016"/>
     <use xlink:href="#DejaVuSans-63" x="158.939453"/>
     <use xlink:href="#DejaVuSans-69" x="213.919922"/>
     <use xlink:href="#DejaVuSans-73" x="241.703125"/>
     <use xlink:href="#DejaVuSans-69" x="293.802734"/>
     <use xlink:href="#DejaVuSans-6f" x="321.585938"/>
     <use xlink:href="#DejaVuSans-6e" x="382.767578"/>
     <use xlink:href="#DejaVuSans-2d" x="446.146484"/>
     <use xlink:href="#DejaVuSans-52" x="482.230469"/>
     <use xlink:href="#DejaVuSans-65" x="547.212891"/>
     <use xlink:href="#DejaVuSans-63" x="608.736328"/>
     <use xlink:href="#DejaVuSans-61" x="663.716797"/>
     <use xlink:href="#DejaVuSans-6c" x="724.996094"/>
     <use xlink:href="#DejaVuSans-6c" x="752.779297"/>
     <use xlink:href="#DejaVuSans-20" x="780.5625"/>
     <use xlink:href="#DejaVuSans-63" x="812.349609"/>
     <use xlink:href="#DejaVuSans-75" x="867.330078"/>
     <use xlink:href="#DejaVuSans-72" x="930.708984"/>
     <use xlink:href="#DejaVuSans-76" x="971.822266"/>
     <use xlink:href="#DejaVuSans-65" x="1031.001953"/>
    </g>
   </g>
   <g id="legend_2">
    <g id="patch_13">
     <path d="M 581.626563 101.642375 
L 702.2 101.642375 
Q 704.2 101.642375 704.2 99.642375 
L 704.2 56.608 
Q 704.2 54.608 702.2 54.608 
L 581.626563 54.608 
Q 579.626563 54.608 579.626563 56.608 
L 579.626563 99.642375 
Q 579.626563 101.642375 581.626563 101.642375 
z
" style="fill: #ffffff; opacity: 0.8; stroke: #cccccc; stroke-linejoin: miter"/>
    </g>
    <g id="line2d_36">
     <path d="M 583.626563 62.706437 
L 593.626563 62.706437 
L 593.626563 62.706437 
L 603.626563 62.706437 
L 603.626563 62.706437 
" style="fill: none; stroke: #1f77b4; stroke-width: 1.5; stroke-linecap: square"/>
    </g>
    <g id="text_37">
     <!-- beta (AP = 0.58) -->
     <g transform="translate(611.626563 66.206437)scale(0.1 -0.1)">
      <use xlink:href="#DejaVuSans-62"/>
      <use xlink:href="#DejaVuSans-65" x="63.476562"/>
      <use xlink:href="#DejaVuSans-74" x="125"/>
      <use xlink:href="#DejaVuSans-61" x="164.208984"/>
      <use xlink:href="#DejaVuSans-20" x="225.488281"/>
      <use xlink:href="#DejaVuSans-28" x="257.275391"/>
      <use xlink:href="#DejaVuSans-41" x="296.289062"/>
      <use xlink:href="#DejaVuSans-50" x="364.697266"/>
      <use xlink:href="#DejaVuSans-20" x="425"/>
      <use xlink:href="#DejaVuSans-3d" x="456.787109"/>
      <use xlink:href="#DejaVuSans-20" x="540.576172"/>
      <use xlink:href="#DejaVuSans-30" x="572.363281"/>
      <use xlink:href="#DejaVuSans-2e" x="635.986328"/>
      <use xlink:href="#DejaVuSans-35" x="667.773438"/>
      <use xlink:href="#DejaVuSans-38" x="731.396484"/>
      <use xlink:href="#DejaVuSans-29" x="795.019531"/>
     </g>
    </g>
    <g id="line2d_37">
     <path d="M 583.626563 77.384563 
L 593.626563 77.384563 
L 593.626563 77.384563 
L 603.626563 77.384563 
L 603.626563 77.384563 
" style="fill: none; stroke: #ff7f0e; stroke-width: 1.5; stroke-linecap: square"/>
    </g>
    <g id="text_38">
     <!-- alpha (AP = 0.64) -->
     <g transform="translate(611.626563 80.884563)scale(0.1 -0.1)">
      <use xlink:href="#DejaVuSans-61"/>
      <use xlink:href="#DejaVuSans-6c" x="61.279297"/>
      <use xlink:href="#DejaVuSans-70" x="89.0625"/>
      <use xlink:href="#DejaVuSans-68" x="152.539062"/>
      <use xlink:href="#DejaVuSans-61" x="215.917969"/>
      <use xlink:href="#DejaVuSans-20" x="277.197266"/>
      <use xlink:href="#DejaVuSans-28" x="308.984375"/>
      <use xlink:href="#DejaVuSans-41" x="347.998047"/>
      <use xlink:href="#DejaVuSans-50" x="416.40625"/>
      <use xlink:href="#DejaVuSans-20" x="476.708984"/>
      <use xlink:href="#DejaVuSans-3d" x="508.496094"/>
      <use xlink:href="#DejaVuSans-20" x="592.285156"/>
      <use xlink:href="#DejaVuSans-30" x="624.072266"/>
      <use xlink:href="#DejaVuSans-2e" x="687.695312"/>
      <use xlink:href="#DejaVuSans-36" x="719.482422"/>
      <use xlink:href="#DejaVuSans-34" x="783.105469"/>
      <use xlink:href="#DejaVuSans-29" x="846.728516"/>
     </g>
    </g>
    <g id="line2d_38">
     <path d="M 583.626563 92.062687 
L 593.626563 92.062687 
L 593.626563 92.062687 
L 603.626563 92.062687 
L 603.626563 92.062687 
" style="fill: none; stroke: #2ca02c; stroke-width: 1.5; stroke-linecap: square"/>
    </g>
    <g id="text_39">
     <!-- joint (AP = 0.56) -->
     <g transform="translate(611.626563 95.562687)scale(0.1 -0.1)">
      <use xlink:href="#DejaVuSans-6a"/>
      <use xlink:href="#DejaVuSans-6f" x="27.783203"/>
      <use xlink:href="#DejaVuSans-69" x="88.964844"/>
      <use xlink:href="#DejaVuSans-6e" x="116.748047"/>
      <use xlink:href="#DejaVuSans-74" x="180.126953"/>
      <use xlink:href="#DejaVuSans-20" x="219.335938"/>
      <use xlink:href="#DejaVuSans-28" x="251.123047"/>
      <use xlink:href="#DejaVuSans-41" x="290.136719"/>
      <use xlink:href="#DejaVuSans-50" x="358.544922"/>
      <use xlink:href="#DejaVuSans-20" x="418.847656"/>
      <use xlink:href="#DejaVuSans-3d" x="450.634766"/>
      <use xlink:href="#DejaVuSans-20" x="534.423828"/>
      <use xlink:href="#DejaVuSans-30" x="566.210938"/>
      <use xlink:href="#DejaVuSans-2e" x="629.833984"/>
      <use xlink:href="#DejaVuSans-35" x="661.621094"/>
      <use xlink:href="#DejaVuSans-36" x="725.244141"/>
      <use xlink:href="#DejaVuSans-29" x="788.867188"/>
     </g>
    </g>
   </g>
  </g>
 </g>
 <defs>
  <clipPath id="p5cf2a836c6">
   <rect x="47.81" y="49.608" width="306.79" height="268.432"/>
  </clipPath>
  <clipPath id="pdaff6c6a02">
   <rect x="402.41" y="49.608" width="306.79" height="268.432"/>
  </clipPath>
 </defs>
</svg>
